<svg xmlns="http://www.w3.org/2000/svg" viewBox="0 0 1076.44 256.31"><title>Ресурс 1</title><g id="Слой_2" data-name="Слой 2"><g id="Слой_1-2" data-name="Слой 1"><path d="M677.18,168.22c-16.1,0-32.09-1.77-48.12-2.87-6.47-.45-13-.15-19.48-.16-10.82,0-21.66.24-32.47-.07-10.51-.31-20.91,1-31.2,2.44-6.81,1-13.22-.12-19.77-.63-6.09-.48-12.13-1.68-18.27-1.69-18.48,0-37-.22-55.45.09-10.76.18-21.5,1.21-32.25,1.86-3.6-1.07-7-2.73-11-2-2.53.47-3.7-1.51-4.63-3.68-2.7-6.32-3.56-13.14-5.38-19.69-5.47-19.7-9.86-39.68-14.9-59.49-3.93-15.46-8.17-30.86-11.45-46.49-2-9.59-4.78-19-7.35-28.48-.64-2.34-2-4.71-.23-7.15h345c1.83,2.21,1.39,4.67.78,7.14-3.1,12.44-4.5,25.23-7.6,37.65-3.8,15.21-4.78,30.93-9,46.08a94.55,94.55,0,0,0-3.08,17.13c-.58,6.85-3.3,13.12-4.25,19.91-1.62,11.66-4.16,23.21-6.28,34.82C680.32,165.26,680.19,167.68,677.18,168.22Z" style="fill:#fdf0c6"/><path d="M964.19.21h53c-1,9.76-3.26,19.3-5.07,28.9-7.1,37.7-14,75.44-21.24,113.12-.94,4.88-1.95,9.76-2.64,14.69-1.6,8.06-2.95,16.18-4.7,24.21-.67,1.21-1.48,2.24-3,2.34-1.42-.88-.88-2.1-.58-3.27,1-2,.3-3.66-1.09-5.16a15.63,15.63,0,0,0-2.16-2.14,9.09,9.09,0,0,0-2.14-1.11c-1.22-.42-2.51-.56-3.75-.89s-2.75-.56-4.12-.91c-2.24-.68-4.53-.37-6.81-.4-1.91,0-3.81,0-5.72,0a31.28,31.28,0,0,1-5.07-.44c-4.25-1.52-8.15.21-12.17,1.22-6,1.51-7.59.22-6.37-5.79,3.52-17.26,6.4-34.65,10.05-51.88,2.59-12.21,4.52-24.55,7.2-36.72,5-22.59,8.21-45.51,13.06-68.12C961.48,5.13,962,2.32,964.19.21Z" style="fill:#f4e1a9"/><path d="M61.19.21h45c3.05,4.36,4,9.55,4.88,14.52,2,11.53,5.59,22.63,8.31,34,5.71,23.79,11.88,47.47,17.84,71.2,3.73,14.85,7.43,29.72,10.67,44.69,1.45,6.68,1.39,6.73-5.5,6.12a6.22,6.22,0,0,0-2.47.26,7.64,7.64,0,0,1-1.62.22,19.46,19.46,0,0,1-4-.59c-3.42-.59-6.82-1.4-10.34-1-4.3.14-8.61-.47-12.89.31-1.41.41-2.9.49-4.31.94a31.36,31.36,0,0,0-3.2,1A14.41,14.41,0,0,0,99.62,174c-1.28.91-2.18,2.42-4,2.48a4.62,4.62,0,0,1-2.41-2.72c-1.76-4.34-1.44-9.16-3.13-13.52-1.69-3.75-.89-7.94-2.12-11.77a18,18,0,0,0-.85-4.8c-4.69-24.28-9-48.62-13.68-72.9Q67.15,38,61.17,5.08C60.88,3.46,60.35,1.83,61.19.21Z" style="fill:#f4e1a9"/><path d="M381.22,170.14l-36,3c-2.9-1.21-4.16-3.56-4.8-6.5-4-18.65-9.06-37.06-13.55-55.6-4.22-17.42-9.25-34.64-13.34-52.1C310,44.11,305.91,29.4,302.67,14.47c-.57-2.62-1.67-5-2.39-7.6-.62-2.18-1.77-4.42-.09-6.66h48c3.69,8.26,5.14,17.17,7.47,25.82q8.67,32.32,16.68,64.81c1.57,6.38,2.91,12.9,4.57,19.25,3.28,12.54,5.12,25.42,9.13,37.77,1.75,5.39,2.65,11,4.24,16.45a6.36,6.36,0,0,1-.1,4.88l-1.95,0C386,170.44,383.44,169,381.22,170.14Z" style="fill:#fcedc2"/><path d="M690.14,169.23l-2.94,0c-.12-1.62,1.16-2,2.24-2.11,4.46-.38,5.66-3.41,6.21-7.15,2.1-14.44,5.27-28.7,7.75-43.07,2.45-14.17,6-28.26,8.7-42.42,4.22-22.38,9.48-44.56,12.8-67.11A12,12,0,0,1,728.19.21h46c.11,8.66-1.76,17.05-3.41,25.47-2.43,12.39-4.79,24.81-7.45,37.14-2.84,13.18-4.24,26.64-7.86,39.64a72.38,72.38,0,0,0-2.41,11.74c-1.94,18.41-7.73,36.07-10.35,54.34-.31,2.15-.68,4.42-3.55,4.71-14.11.42-28-2.6-42-3.09C694.95,168.92,692.36,170.45,690.14,169.23Z" style="fill:#fcedc2"/><path d="M139.19,170.15c.57-.3,1.27-1,1.68-.84,7.33,2.49,6.72-1.19,5.38-6.36-3.31-12.76-6.27-25.62-9.39-38.44-2.54-10.43-5.13-20.86-7.67-31.29-1.08-4.45-2.31-8.86-3.38-13.31-4.73-19.72-9.91-39.34-14.84-59C109.25,14,107.78,7.11,106.19.21h29c4.77,4.5,4.59,11,6,16.59,2.87,11.07,5.36,22.29,8.11,33.38,3.51,14.15,6.81,28.4,11.06,42.4,3.23,10.62,5.18,21.64,7.79,32.45,3.56,14.7,8,29.17,11.19,43.95.65,3,3.5,3.69,5.08,5.84a3.88,3.88,0,0,1-4.37.43h-1.85c-7.6.85-15-1-22.39-2-1.62-.23-3.18-.85-4.84-.3a8.18,8.18,0,0,1-1.53.29c-2,.22-4-.5-5.92-.86a10.58,10.58,0,0,1-1.4-.39C141.09,171.54,139.9,171.24,139.19,170.15Z" style="fill:#f4e3ad"/><path d="M866.19.21h29c1.56,2,.83,4.19.4,6.24-2.33,11.23-3.79,22.6-6.3,33.81-2.24,10-3.42,20.26-5.7,30.28-3.8,16.65-5.69,33.7-10.32,50.18-1,3.72-.48,7.61-1.24,11.38-2.48,12.2-5.46,24.3-7.48,36.61-1.3,7.9-2.44,8.44-10.57,8.5a15.9,15.9,0,0,0-4.95.4c-6.9.13-13.79.15-21.73,0,6.74-7.22,5.66-15.77,7.45-23.51,2.47-10.68,4-21.56,6.3-32.26,1.58-7.29,2.82-14.65,4.54-21.91,5.05-21.34,8-43.11,12.78-64.52,2.14-9.48,3.3-19.26,5.27-28.84C864.11,4.26,864.35,1.93,866.19.21Z" style="fill:#f8e6b4"/><path d="M300.19.21c2.74,10.49,5.54,21,8.2,31.49,2.3,9.11,4.34,18.29,6.64,27.4,4.44,17.56,9.07,35.07,13.44,52.65,3.76,15.12,6.84,30.42,11.1,45.39,1.53,5.37.84,11.75,5.61,16.05-9,.36-17.94,2.23-27,2-3.42-.88-4.53-3.6-5.2-6.63-3.5-15.73-7.45-31.36-11.27-47-3.07-12.6-7.2-24.93-9.82-37.66-4.25-20.68-9.84-41-15.22-61.42-1.27-4.82-2.15-9.73-3.49-14.55-.68-2.43-1.77-5.15,0-7.7Z" style="fill:#faecbf"/><path d="M739.16,173.25c3.75-4.53,2.56-10.34,3.94-15.48,3-11.35,4.69-23,7.59-34.43,1.43-5.63.84-11.86,2.52-17.6,3.58-12.2,4.53-24.89,7.15-37.27q4.13-19.49,7.92-39c1.59-8.21,3.93-16.26,4.06-24.73,0-1.51,1.2-3,1.84-4.5h27c1.22,1.45,1,3.16.61,4.76-1.38,5.31-2,10.75-2.92,16.14-2.47,14-5.61,27.94-7.71,42.07-1,6.71-3.39,13.38-4.42,20.26-1,6.56-2.38,13-3.14,19.64-.15,1.32,0,2.75-.69,3.9-3.86,6.75-3.31,14.51-5,21.75-1.8,7.87-2.29,16-5,23.74-1.92,5.45-1.41,11.52-3.22,17.1-.45,1.39-.37,3-1.61,4.17,2.38.85,5.81-1.3,7.1,2.46-11.44-.68-22.88-1.36-34.31-2.08C740.28,174.06,739.73,173.55,739.16,173.25Z" style="fill:#faecbf"/><path d="M866.19.21c-1.55,7.05-1.93,14.3-4.69,21.18-1.49,3.72,0,8.17-1.16,12.31C856.7,46.21,855.08,59.15,852.8,72c-2,11.43-4.57,22.77-6.86,34.14-2.68,13.33-5.22,26.69-7.91,40-1.55,7.67-2.94,15.31-4,23.06-.41,2.92-1.35,6.32-5.35,8h20.53c5.37-.37,10.73-1.46,16.09.06-1.55,1.44-3.48.88-5.25.89-15.49,0-31,.09-46.46,0-4.13,0-8.26-.61-12.39-.94a1.14,1.14,0,0,1,.25-1.51c2.82-1.44,3.83-4,4.26-6.91,2.19-14.8,6.29-29.23,8.59-44,1.71-11,5-21.71,6.5-32.7,1.81-12.84,4.12-25.63,7.1-38.17,3.8-16,5.06-32.53,9.68-48.35.56-1.92,1.07-3.86,2.61-5.3Z" style="fill:#f9e9b8"/><path d="M964.19.21c-4,15.86-6.36,32-9.5,48.07-4.92,25.09-9.69,50.21-14.57,75.31-2.76,14.19-5.48,28.38-8.47,42.52-.84,4,.23,4.12,3.7,3.35,4.5-1,8.94-4.09,13.83-1.29-1.43,1.62-3.54,1.55-5.37,2.18a28.5,28.5,0,0,0-4.14,1.14,17.79,17.79,0,0,1-4.2.92c-.47.06-.95.09-1.42.12-1.93,0-3.73.79-5.63,1a23.19,23.19,0,0,1-4.45.64,8.18,8.18,0,0,1-1.56-.2c-4.75-.47-9.37.64-14,1.15a32.68,32.68,0,0,1-8.27.24l-3.84-.1c-.92.5-2.07.87-2.72,0-.91-1.24.47-1.76,1.27-2,2.79-.82,3.83-3,4.6-5.46,2-6.51,3.93-13.07,4.39-19.91.52-7.7,3.54-14.85,4.75-22.43,3.34-20.85,7.74-41.54,12-62.21,3.36-16.45,5.52-33.14,9.66-49.44,1.17-4.58.07-9.81,4-13.58h3c1.75,3.42.41,6.87-.16,10.2-2.28,13.47-5.56,26.75-7.91,40.19q-5,28.52-10.87,56.86c-2.41,11.56-4.16,23.24-6.84,34.75-2,8.53-3.39,17.22-4.85,25.88,1.78-7.41,2.89-15,4.75-22.34,2.6-10.21,3.73-20.63,6-30.86,4-17.87,6.63-36,10.48-53.89,3.33-15.46,5.43-31.15,9.29-46.49a48,48,0,0,0,.79-7.44c.25-2.68.6-5.36,3.3-6.88Z" style="fill:#f4e3ad"/><path d="M208.19.21h25a6.85,6.85,0,0,1,2.46,4.23c1.51,9.06,4.69,17.68,6.75,26.61,3.15,13.61,6.61,27.16,10.26,40.65,1.91,7.07,3.52,14.23,5.12,21.34,2.85,12.67,6.54,25.12,9.48,37.77,3,12.94,6.32,25.84,9.6,38.74.58,2.27,2.37,5.07-.75,7.13-6.48.14-13,.61-19.45.62-3.61,0-5.51-1.2-6.36-4.75-4.32-18-9-35.83-13.35-53.77-5.16-21.17-10.8-42.24-16.12-63.38C216.45,37.95,212.25,20.46,207.76,3A3,3,0,0,1,208.19.21Z" style="fill:#f9e9b8"/><path d="M212.11,177.24c-6-.48-12.11,1-18-1,1.72-1.91,3.82,0,5.61-.57.73.11.22-.69.27,0,0,.1-.16,0-.5.05-2.76.19-3.85-1.57-4.42-3.84q-4.28-16.93-8.6-33.85c-2.74-10.64-5.39-21.29-7.88-32C175.31,92.1,171.41,78.34,168,64.45c-4.84-19.71-9.33-39.51-14.89-59-.5-1.74-1.35-3.49.07-5.21h22c1.95,1.52,2.73,3.65,3.33,6,6.9,26.34,13.3,52.81,19.83,79.25,3.5,14.17,7.23,28.28,10.51,42.51s7,28.71,10.94,42.94c.83,3,2.44,4,5.34,4,2.47,0,5-.38,7.37.79.62.64,1.45,1.27.1,2C225.78,177.47,218.93,178.24,212.11,177.24Z" style="fill:#f7e5b3"/><path d="M865.29,177.26l-16.09-.06c1.48-1.63,3.44-.93,5.19-1,6.93-.1,7.56-.61,8.82-7.7,1.33-7.48,2.16-15.1,4.13-22.41a155.78,155.78,0,0,0,4.11-23.36A88.87,88.87,0,0,1,875.68,104c1.92-5.59,1.76-11.34,3.16-17,2.27-9,3.63-18.36,5.89-27.48A120.09,120.09,0,0,0,886.92,46c1.09-8.54,3.84-16.7,4.7-25.28C892.31,13.82,894,7,895.19.21h22c1.58,2,.63,4.15.19,6.22-4,18.84-7.45,37.79-11.4,56.64-3.61,17.22-6.49,34.59-9.85,51.86-2.66,13.67-5.81,27.24-8.1,41-.71,4.25-1.15,8.52-2.14,12.75-1.64,7-1.45,7-8.86,7,2.34.46,4.87-.58,7.22.58C878,178.3,871.6,176.74,865.29,177.26Z" style="fill:#f7e5b3"/><path d="M273.19.21c1.85,9,4.12,17.89,6.46,26.78,1.61,6.13,2.89,12.46,4.57,18.59,5,18.22,8.33,36.82,13.13,55.06,2.67,10.16,6.15,20.12,8.21,30.43,2.55,12.72,6.73,25,8.78,37.87a10.47,10.47,0,0,0,3.83,6.24c-8,1.18-16,1.17-24,1a3.7,3.7,0,0,1-1.46-2.54c-.19-6.86-3.58-13-4.05-19.85-.31-4.51-2.1-8.74-3.36-13-4-13.42-6.56-27.15-10-40.67-6.54-25.43-13.12-50.85-18.93-76.46-1.25-5.5-3-10.9-4.53-16.35-.65-2.37-1.53-4.86.38-7.14Z" style="fill:#f9ebbc"/><path d="M775.18,176.19c-2.42-2-5.51-.23-8.09-1.29C779.33,116.77,790,58.45,801.19.21h20c1.5,1.71,1.13,3.7.85,5.69a154.24,154.24,0,0,1-2.85,16.19c-4.11,16.1-6.52,32.54-9.74,48.8-2.47,12.49-5,25-7.05,37.64-2,12.27-5.13,24.35-7.41,36.6-1.64,8.8-3.57,17.57-5.27,26.37-.66,3.41-2,5.11-5.55,4.74Z" style="fill:#f9ebbc"/><path d="M233.18,177.2l-1-1c-2.84-3.56-2.9-8.13-3.93-12.22-3.73-14.81-7.26-29.68-11.08-44.46-3.57-13.82-7-27.69-10.59-41.51-2.91-11.24-5.47-22.6-8.32-33.87-2.61-10.31-5.11-20.64-7.84-30.91-1.13-4.23-3.13-8.48-1.23-13h19C213,17.37,217,34.76,221.4,52c3.26,12.77,6.77,25.55,9.91,38.33,3,12.29,6.64,24.47,9.05,37,2.59,13.4,6.74,26.5,10.22,39.72,0,.16.15.3.2.46.76,2.82,0,6.87,2.6,8.15s6.17.5,9.32.54c4.5,0,9,0,13.49,0q.51.33.34.65t-.34.32l-5.94,0A289.49,289.49,0,0,1,233.18,177.2Z" style="fill:#f8e7b6"/><path d="M153.19.21c2.9,11.15,5.88,22.28,8.67,33.46,3.51,14.07,6.79,28.2,10.3,42.27,2.83,11.32,6.29,22.5,8.66,33.92,2.21,10.65,5.17,21.11,7.7,31.66,2.49,10.39,5.29,20.75,8,31.13.5,1.93,2.12,2.48,3.56,3.6h-5.95c-4.66-.41-9.43.91-14-1H183c-3.79-.7-4.24-3.3-5-6.51-3.18-13-7-25.78-10.3-38.72-2-7.65-3.22-15.49-5.18-23.14-3.55-13.87-7.6-27.61-11-41.51-2.8-11.34-4.33-23-7.65-34.19-3.06-10.28-4.85-20.9-8.63-31Z" style="fill:#f5e4b0"/><path d="M884.25,176.23h-8.89l0-1c1.67,0,3.34-.07,5,0,2.33.12,3.35-1.28,3.71-3.23,2.09-11.43,4-22.9,6.18-34.32q5.9-31.29,12-62.55,3.92-20.33,8-40.64c2.29-11.43,4.68-22.85,7-34.27h17c-3,15.53-5.71,31.1-9,46.56C921.47,64.34,919,82.17,915,99.66c-2.64,11.59-3.69,23.49-6.94,34.88-2.46,8.62-2.61,17.57-5,26.11-1.08,3.82-2.67,7.49-3.65,11.33-.83,3.23-3.46,1.75-5.28,2.44.41,1.15,1.39.63,2.11.83C892.39,177.14,888.25,175.87,884.25,176.23Z" style="fill:#f5e4b0"/><path d="M390.18,169.19c-4-15-8.73-29.92-11.45-45.17-1.08-6.08-2.54-12.29-4-18.07-4.36-16.8-8.08-33.77-12.8-50.48-4-14.15-7.12-28.54-10.85-42.76-1.09-4.14-3.12-8-2.86-12.5h17c2.74,10.51,5.6,21,8.2,31.53,2.09,8.47,3.67,17.07,5.82,25.53,3.28,12.92,6.94,25.74,10.26,38.64,1.64,6.37,2.74,12.85,4.48,19.23,3,11,5.5,22,8.53,33,1.27,4.58,1.82,9.34,3.6,13.85.72,1.83,1.8,2.75,3.2,2.09,4.69-2.24,7.72.53,10.91,3.11l-4,0c-2.21,1.24-4.79-.29-7,.93C402.83,167.78,396.58,169.83,390.18,169.19Z" style="fill:#fbeec4"/><path d="M728.19.21c-3.84,13.71-4.59,28-8.13,41.77-3.16,12.21-4.32,24.73-7.05,37-1.62,7.23-3.73,14.35-4.83,21.72-1.41,9.44-3.84,18.67-5.08,28.17-1.38,10.58-4,21-5.91,31.51-.87,4.76-2,9-8.31,8-.5-.08-1.12.57-1.68.88-3.35-.22-6.81.72-10-1,3.31-4.28,3-9.66,3.81-14.52,1.47-8.42,4-16.72,4.64-25.15.61-7.66,3.51-14.61,4.64-22.06,2-13.17,5.21-26.15,7.3-39.31,1.42-8.95,2.72-18,5-26.68,2.89-11.06,3.15-22.61,7.14-33.36.84-2.28.33-4.62.49-6.93Z" style="fill:#fbeec4"/><path d="M276.18,177.18q0-.49,0-1c.44-7.39-2.75-14.07-4.28-21.05-2.88-13.17-6.37-26.21-9.63-39.3q-8.5-34.1-17-68.19c-4-15.83-8-31.64-12-47.46h10c4.91,6.73,5.13,15,7.16,22.59,2.6,9.75,5.3,19.5,7.49,29.31,2.13,9.53,4.73,19,7.2,28.35,4,15.35,6.61,31.06,11.75,46.16,1.78,5.22,1.07,11.28,3.52,16.47C284.51,152,283.89,162,288,171c-.63-7.35-3.41-14.11-5-21.13-3.48-14.89-7.33-29.68-11-44.53-2.7-11-5.88-21.8-8.38-32.78-2.18-9.55-4.79-19-7-28.54-2.09-9-3.94-18.19-6.8-27.07-1.11-3.45-1.94-7-2.84-10.53-.52-2-1.3-4.24.29-6.23h5c0,7.1,3.16,13.49,4.69,20.25q3.49,15.41,7.37,30.73c2.81,11.19,5.83,22.32,8.69,33.5,1.47,5.75,2.53,11.62,4.27,17.28,3.79,12.32,5.59,25.11,9.24,37.49,1.72,5.84,3,12.12,4.27,18.18s2.46,12.35,3.47,18.58C288.28,178.2,282.18,176.8,276.18,177.18Z" style="fill:#f9e8ba"/><path d="M784.16,176.23c4.05-.75,3.73-3.86,4.31-7,1.79-9.74,4.67-19.29,6.1-29.07,2.52-17.17,6.87-34,10-51s6.43-34,9.88-51c2.56-12.56,6-25,6.76-38h5c1.58,2,.85,4.22.36,6.24-3.61,14.88-6.08,30-9.23,45-2.39,11.38-4.37,22.86-6.53,34.3-3.24,17.14-6.1,34.36-9.83,51.38-2.35,10.72-3.88,21.58-6.36,32.26C798.68,158.51,800,147,802,135.72c1.82-9.91,2.72-20,6.2-29.63,2.06-5.69,1.57-11.85,2.57-17.76,1.2-7.07,3.37-13.87,5.08-20.8,2.34-9.53,2.3-19.52,4.82-29,3.18-12.06,5.34-24.31,7.48-36.57a4.12,4.12,0,0,1,1-1.71h11c-4.21,14.94-5.35,30.51-9.11,45.51-2.46,9.79-3.56,19.77-5.83,29.55-2.33,10.07-2.62,20.65-5.48,30.45-3.35,11.47-3.92,23.35-7.25,34.79-3,10.21-4.3,20.92-6,31.47-.57,3.45-2.12,4.59-5.3,4.23a61.9,61.9,0,0,1-17,0Z" style="fill:#f9e8ba"/><path d="M189.19.21c1.34,9.13,4.28,17.87,6.48,26.78,1.48,6,2.79,12.15,4.46,18.11,4.28,15.29,7.5,30.85,11.5,46.21,2.74,10.54,5.39,21.25,7.9,31.9s5.11,21.33,8.1,31.9c1.93,6.82,4.54,13.76,4.57,21.1-13.59,0-13.1-.11-16.15-13.32-2.5-10.84-4.45-21.87-8.43-32.37-1.2-3.16-.67-6.94-1.65-10.23-4.17-14-6.89-28.31-11.18-42.27-2.51-8.15-3.25-16.84-5.69-25-3.88-13-6.19-26.48-10.46-39.42-1.43-4.33-1.76-9-3.44-13.37Z" style="fill:#f8e6b4"/><path d="M22.19.21h7c4.36,5.43,3.69,12.31,5,18.52q5,23.35,10.08,46.7c3.2,14.9,6.72,29.74,9.22,44.79C54.9,118.58,57,126.83,59,135c2.09,8.56,2.57,17.43,5.48,25.8.7,2,.93,4.19,2.21,6,.69,1,1.08,2.12-.32,3a5,5,0,0,1-2.51.38c-4.37-1.52-9.21.6-13.49-1.68-.24-2.95,2.09-2.41,3.65-2.45a18.57,18.57,0,0,1,4,.75c-1.34,0-2.65-1.12-3.13-3.42-3.25-15.62-7.08-31.12-10.28-46.76C43,109.34,41.94,102,40.07,94.72c-2.38-9.17-4-18.53-6.14-27.78-2.72-12-4.56-24.16-7.44-36.14-2-8.39-3.09-17-5.95-25.23A4.66,4.66,0,0,1,22.19.21Z" style="fill:#fcedc1"/><path d="M1050.19.21h7a3.93,3.93,0,0,1,.8,3.74c-4.48,18-7.68,36.37-11.48,54.56-2.27,10.85-6.12,21.33-6.92,32.59-.4,5.6-2.26,11.33-3.74,16.95-1.59,6-3.26,12.12-3.8,18.39-.39,4.48-1.94,8.71-2.85,13.06-1.74,8.41-3.7,16.78-5.22,25.25-.55,3.08-3.49,2.56-5.57,3.28-3.05.43-4.24-1.2-4.42-4a19.07,19.07,0,0,1,.68-5.43c3.55-15.54,6.36-31.24,9.94-46.78,4.29-18.6,7.17-37.52,11.66-56.05,3.17-13.09,4.8-26.49,8.78-39.39,1-3.3,1.13-6.87,1.75-10.31A8.74,8.74,0,0,1,1050.19.21Z" style="fill:#fcedc2"/><path d="M22.19.21c-2.81,5.1,1.5,9.17,2.38,13.63,2.17,11.08,5,22.11,7.08,33.17S36,69,38.33,80c1.38,6.48,3.58,13,4.41,19.38,1.08,8.38,3.32,16.46,4.84,24.67,1.66,9,3.38,18.08,6.28,26.89A63.67,63.67,0,0,1,56,162.45c.38,3,1.51,4,5.6,3.8-4.67,1.86-8.34-.3-11.39,1.89a2.32,2.32,0,0,1-1.38,1.76,4.91,4.91,0,0,1-3.84-.07c-2.08-2,.27-2.56,1.16-3.6,1.81-.89,1.44-2.42,1.1-3.89-.76-3.25-1-6.59-1.81-9.81-4.16-17.09-7.12-34.44-11.06-51.56-2.42-10.5-4.63-21.06-6.88-31.58C24.53,55.61,21.14,41.92,18.61,28c-1.13-6.2-3-12.28-4.13-18.49-.59-3.1-1.31-6.19-.29-9.34Z" style="fill:#fdefc6"/><path d="M1018.19,167.2c3.41-.78,4-3,5-6.3,2-6.45,2.43-13.2,4.21-19.69,1.45-5.27,2.38-11.38,3.36-17s2-11.79,3.91-17.54a93.06,93.06,0,0,0,4.47-23.41c.35-5.34,3.15-10,3.85-15.31a128.67,128.67,0,0,1,4.32-20.19c2-6.59,1.77-13.58,4.4-20,1.11-2.72,1-5.83,1.52-8.74,1-6.34,2.77-12.51,4-18.8h7c2.19,5.22-.25,10.27-1.45,15-4,15.48-7,31.15-10.08,46.8-2.16,10.89-4.7,21.69-6.83,32.58-3.37,17.25-7.61,34.33-10.85,51.6-.92,4.93-2.38,9.66-3.42,14.51-.41,1.9-1.2,3.94.82,5.52,1.13,1.27,3.62,2.48.19,4a6.59,6.59,0,0,1-3.16-.13c-1-.29-2-.68-3-1C1023.8,167.86,1020.56,169.51,1018.19,167.2Z" style="fill:#fdefc6"/><path d="M39.19.21h5c2.08,1.84,2.94,4.15,3.48,6.9C50.33,20.58,53.09,34,56.16,47.43c1.7,10.64,4.4,21.06,6.67,31.57q3.94,18.25,7.58,36.56c1.33,6.69,3.43,13.18,4.5,19.91C77.37,150.88,81.2,166,85,181.08c.71,2.83,1.48,5.91-1.12,8.42-2.79.55-3.72-1.57-4.61-3.44a59.94,59.94,0,0,1-3.42-8.6C73.9,165.14,71.07,153,68.46,140.8c-2.29-10.71-5.07-21.32-6.78-32.16-.65-4.1-2.13-8-2.93-12.11C55.54,80.26,52,64.08,48.62,47.85,45.36,32,41.54,16.24,39.19.21Z" style="fill:#f5dfa6"/><path d="M36.19,224.19l-1.9.13a3.47,3.47,0,0,1-1.49.58,2.43,2.43,0,0,1-2.4-1.81C28.76,210.24,25,197.76,23.12,185c-2-13.67-5.31-27-7.93-40.55-3.06-15.8-5.17-31.77-9-47.45A301.55,301.55,0,0,1,.72,66.62c-.35-3.8.61-7.65-.54-11.41v-36c3.74,1.17,2.95,4.24,2.94,7-.81,7.62-1,15.15.8,22.76,2.7,11.65,4.62,23.48,7,35.2Q14.66,102,17.81,119.9c2.38,13.4,5.18,26.73,8,40,3.19,15.24,5.71,30.6,9.11,45.79,1,4.53,1.28,9.22,2.37,13.76A4.93,4.93,0,0,1,36.19,224.19Z" style="fill:#f1da9b"/><path d="M829.19.21c.35,7.22-2.08,14-3.13,21-1.87,12.48-6.38,24.41-7.09,37.19a59,59,0,0,1-3.86,16.71c-2.45,6.71-2.93,14.18-3.85,21.38-.79,6.21-1.22,12.46-4.27,18.1-.94,1.73-.67,3.56-.91,5.35-1.76,13.26-4.15,26.41-6.91,39.49-.88,4.19-2.18,8.3-3.4,12.41-.31,1-.82,2.52-2.34,2-1.83-.59-.45-1.92-.32-2.91,1.93-14.37,5.11-28.48,8.41-42.58,1.16-5,1.11-10.2,2.23-15.17,3.73-16.52,6-33.33,9.71-49.83,3.34-15,5.36-30.32,9.33-45.25a94.18,94.18,0,0,0,3.4-18Z" style="fill:#f9ebbc"/><path d="M1076.19,4.21v15c-2.89,8.84-4.23,18-6.32,27.07-2.51,10.83-4.33,21.83-6.68,32.71a10.1,10.1,0,0,0-.2,3.44c-3.59,15.5-7.56,30.94-10.35,46.61-2.33,13.08-5.33,26-8.49,38.87a8.36,8.36,0,0,0,.72,6.74c.69,1.12,1.39,2.37.17,3.63-3.87-.55-5.79-3.72-8.28-6.14a3.84,3.84,0,0,1-.08-1.57c3.86-13.45,5.89-27.31,9.1-40.9,3.7-15.66,6.88-31.44,10.39-47.14q5.87-26.26,10.77-52.78c1.36-7.34,3.8-14.45,4.52-22C1071.64,6,1072,1.88,1076.19,4.21Z" style="fill:#f7e6b4"/><path d="M.19,10.21a38.2,38.2,0,0,0-.06-6C-.42.76.76-.55,4.19.21,6.31,4.93,7.25,10,8.14,15c3.12,17.49,7.48,34.71,11.21,52.06,4.56,21.25,8.51,42.64,13.33,63.83,2.62,11.49,4.22,23.2,7.55,34.52a9.42,9.42,0,0,1,0,6.34,6.82,6.82,0,0,1-.53,1.48,7.16,7.16,0,0,1-5,3.21c-2.37-2.56-.19-5.58-.84-8.48-1.22-5.5-2.79-10.9-4-16.4.21-8.26-2.61-16-4.53-23.82-1.06-4.35-1.92-8.72-2.76-13.1-2.7-14.13-5.86-28.16-8.89-42.21-3.88-18-6.86-36.27-11.57-54.11C1.41,15.64,1.91,12.65.19,10.21Z" style="fill:#f7e6b4"/><path d="M1042.19.21h4c1.57,1.84.65,3.85.24,5.72-5.07,23.19-9.75,46.45-14.75,69.65-4.93,22.86-9.86,45.73-14.52,68.65q-2.48,12.2-5.26,24.35c-.29,2.3-2.14,3.26-3.78,4.4-1.47.77-2.52,2.27-4.31,2.5a1.76,1.76,0,0,1-1.18-1.74,3.49,3.49,0,0,1,.48-1.48c2.72-2.85,2.52-6.57,3.44-10.07,2.25-8.53,2.85-17.36,5.3-25.8,2.87-9.91,4.39-20.11,6.46-30.17,1.63-7.95,4.66-15.51,5.61-23.65,1.64-14,5.77-27.57,8.22-41.46,1.28-7.28,3.46-14.48,5-21.76C1038.52,12.89,1038.81,6.15,1042.19.21Z" style="fill:#f9e7b5"/><path d="M32.19.21h4c2.22,2.22,1.63,5.29,2.32,8C41.46,19.45,43.38,31,45.88,42.34,47.61,50.22,49.27,58.17,51.4,66,53.75,77,56.06,88.05,58.58,99c2.56,11.15,4.34,22.46,7,33.58,2.37,10,4.15,20.16,6.6,30.16.81,3.3,2.35,6.73-.65,9.82a3.25,3.25,0,0,1-3.86-2.3c-6.57-23-10.63-46.65-15.58-70S41.69,53.86,37.31,30.48c-1.19-6.34-2.46-12.73-4.14-19C32.2,7.84,30.9,4.1,32.19.21Z" style="fill:#f9e7b5"/><path d="M247.19.21c.89,9.23,4.79,17.69,6.82,26.64,2.88,12.68,6.19,25.28,9.21,37.91,2.33,9.72,4.61,19.5,7.21,29.13,3,11.08,5.08,22.37,8.46,33.35,2.62,8.51,4.19,17.35,6.27,26,1.5,6.25,3.87,12.3,4.49,18.77.11,1.12,1,2.4-.7,2.86-1.53.42-2.23-1-2.32-2-.48-5.3-3.72-9.81-3.64-15.39.09-6.31-3.68-11.85-5.32-17.87-.75-2.74-1.81-5.35-1.47-8.21.67-5.52-2.77-10-3.84-15.13-1.84-8.84-4.11-17.65-6.37-26.4-1.64-6.38-3.27-12.93-5-19.29-1.42-5.36-2.8-11.18-4.37-16.43-1.75-5.86-1.36-12.25-4.56-17.79-1.85-3.2-1.89-7.28-2.66-10.93-.95-4.45-3-8.74-2.49-13.59.2-1.71-1.31-3.69-2.22-5.45A10.64,10.64,0,0,1,243.19.21Z" style="fill:#f9ebbc"/><path d="M14.19.21C15.52,7,16.47,13.82,18.26,20.45c2.65,9.83,3.82,20,6.74,29.74,2.07,7,2.15,14.51,4.35,21.41,2.94,9.27,4,18.91,6.17,28.3,2.22,9.6,4.23,19.4,6,29.16,1.24,6.71,2.11,13.65,4.4,20.26,1.66,4.8,2.23,10,3.17,15,.41,2.2-.9,3-2.94,2.87-2.08.11-1.75-1.66-2-2.78-2.55-10.16-4.78-20.39-6.78-30.69-3.46-17.8-7.45-35.51-11.16-53.27-2.34-11.22-4.86-22.42-7.32-33.6C16.57,36.33,15.06,25.59,12,15.18c-1.4-4.78-3.39-9.84-.82-15Z" style="fill:#fbedc2"/><path d="M11.19.21c-.29,8.09,2.69,15.58,4.27,23.32s3.61,15.15,5,22.71c4.34,23.79,10.22,47.25,15,70.94,3.05,15.17,5,30.62,9.8,45.42.5,1.55-.55,3.34,1,4.61.2.88-2.26.73-.82,2.09a1.16,1.16,0,0,1-.49,1.38,3.49,3.49,0,0,1-2.34.31c-.6-.26-1.22-.48-1.36-1.27-4.32-23.88-10.3-47.41-14.66-71.28-1.82-10-4.89-19.73-6.56-29.69-2.17-13-6.19-25.48-8.13-38.46-1.25-8.39-4-16.46-5.29-24.85-.27-1.8-.79-3.64.65-5.23Z" style="fill:#faecbe"/><path d="M941.19.21a24,24,0,0,0-2.08,9.64c-.35,7.6-2.76,14.89-4.17,22.32-4.26,22.4-8.48,44.82-12.89,67.2-2.46,12.49-4.39,25.08-7.09,37.49-2.38,11-4.3,22-6.86,32.92-.29,1.24-.89,2.4-2.31,2s-1.59-1.81-1.24-3.29c1.58-6.73,3.22-13.46,4.56-20.24,1.76-8.89,3.12-17.87,4.88-26.76,4-19.95,8.59-39.78,11.92-59.83,2.25-13.56,5.08-27,8-40.36,1.51-6.93,2.2-14,3.26-21.06Z" style="fill:#f5e4b0"/><path d="M1003.18,173.21q0,.5,0,1c-.42,2.3-1.72,4.28-2.33,6.51-1.08,1.77-.7,4.86-4.08,4.55-1.59-1.19-1.54-2.77-1.15-4.5,2.3-10.17,4-20.51,6.53-30.59,5.55-21.88,9.34-44.12,14.34-66.1,3.59-15.81,6.67-31.73,10.09-47.58,1.78-8.25,4.26-16.33,5.75-24.64.21-1.19,0-2.31.09-3.45.36-3.13.48-6.41,3.78-8.2h3a3.82,3.82,0,0,1,.59,3.77c-3.43,13.52-5.64,27.29-8.85,40.86-3.37,14.21-6.36,28.5-8.63,43-1.21,7.67-4.21,15-5.53,22.73-1.73,10.12-3.56,20.24-6.13,30.2C1007.85,151.48,1006.45,162.56,1003.18,173.21Z" style="fill:#f5e0a7"/><path d="M1032.19,167.21c-2.5.21-3.42-1.15-2.91-3.35,1.53-6.7,4.06-13.14,4.7-20.08.66-7.17,4.25-13.8,4.18-21.11,0-3.27,1.29-6.2,2.19-9.14,2.92-9.56,3.77-19.5,5.9-29.18,2.59-11.78,4.7-23.68,7.33-35.41,2.52-11.23,4-22.76,7.9-33.71,1.7-4.72,1.86-10,2.72-15h4c2.18,3.71-.55,7.08-1,10.57-.53,4.42-1.67,8.79-2.07,13.26-4.18,10.05-5,20.93-7.58,31.36-4.79,19-7.95,38.38-12.41,57.48-3.24,13.88-6,27.91-8.69,41.94-.65,3.43-1.94,6.71-2.19,10.23C1034.2,166.11,1033.88,167.46,1032.19,167.21Z" style="fill:#fbedc2"/><path d="M1003.18,173.21c-.94-4.2.59-8.28,1.43-12.14,1.94-8.85,3.4-17.85,5.86-26.53,3.72-13.18,4.86-26.81,8.45-40,4-14.7,6.16-29.88,9.3-44.82,2.35-11.21,5.37-22.29,7.31-33.57.93-5.41,2.89-10.51,3.65-15.91h3c.24.62.88,1.48.68,1.82-3.89,6.4-3.82,13.91-5.12,20.84-2.09,11.17-5.09,22.14-7.11,33.34-1.66,9.18-4.06,18.38-5.62,27.62-2.09,12.35-6.45,24.13-8.06,36.62-1.19,9.28-4.59,18.27-6,27.54-.91,6-3.59,11.72-3.1,18.08C1008.1,169,1006.13,171.72,1003.18,173.21Z" style="fill:#f7e4af"/><path d="M71.15,172.22c2.68-5.92-1.16-11.18-1.93-16.7a263.4,263.4,0,0,0-5.42-26.27c-3.66-14.83-6.12-29.89-9.74-44.72-1.47-6-3.61-12-3.87-18.33a78.86,78.86,0,0,0-3.41-18.14c-3.39-9.92-3.78-20.5-6.46-30.62C38.86,11.92,36.66,6.22,38.19.21h1c3.69,6.34,4.07,13.62,5.25,20.54a119.17,119.17,0,0,0,4.23,17.56c.93,2.79,0,5.64.83,8.37,3.53,11.5,5.07,23.46,8,35.11,1.54,6,1.94,12.58,3.58,18.74,2.54,9.56,4.56,19.29,6.33,29,1.86,10.2,5.22,20.06,6.29,30.49.58,5.7,3,11.33,3.45,17.24-.42.44-.63,1.11-1.32,1.28-1.19-.17-1.73-1.17-2.46-1.93C72.5,175.19,70.56,174.36,71.15,172.22Z" style="fill:#f7e4af"/><path d="M1011.37,169.31c-1.29-.84-.78-2.2-.58-3.16,2.15-10.17,4.59-20.28,6.65-30.46q3.39-16.72,7-33.39c1.4-6.38,3-12.87,4.25-19.24,1.89-9.39,4.33-18.66,6.12-28.07,3.5-18.31,7.52-36.53,11.32-54.78h4c-1.8,4.92-2.48,10-3.36,15.18-.95,5.56-3.13,11-4.12,16.69-2.46,14-6.5,27.76-9.07,41.75-2.7,14.74-5.86,29.36-9.07,44q-4.66,21.25-8.85,42.6c-.47,2.41-2.8,6.19,2.48,6.79,3,.4,6.16-.9,9,.9-4.12,2.9-9.07.64-13.41,2.14A3.33,3.33,0,0,1,1011.37,169.31Z" style="fill:#faeabb"/><path d="M1076.19,4.21c-4-.54-3.66,3.08-3.83,4.9-1.06,11.41-5.28,22.15-6.88,33.36-1.89,13.28-5.88,26.1-7.54,39.42-.65,5.23-3,10.4-4,15.73-3.29,18.12-7.82,36-11.33,54.05-1.28,6.58-1.32,13.82-5.65,19.64-1.31.62-2,0-2.32-1.21-.73-5.23.81-10.28,2.13-15.12,2.1-7.7,3.82-15.46,5.41-23.26,2-6.82,2.93-13.87,4-20.88-.37-3.05.73-5.83,1.59-8.66A13.64,13.64,0,0,0,1050.4,94a7.33,7.33,0,0,1,.27-1.33c1.63-3.53,2.5-7.16,1.4-11,.28-1.64-.16-3.43,1-4.86,2.17-1.71,1.69-4.24,2-6.52a10.07,10.07,0,0,1,.3-1.45,151.61,151.61,0,0,0,4.87-23.45,6.85,6.85,0,0,1,.18-1.55c3.4-12.26,5.66-24.77,8.09-37.24.44-2.28.84-4.59,2.63-6.31C1073.92.21,1077.41-.74,1076.19,4.21Z" style="fill:#f9e9b9"/><path d="M1076.19,75.21v43c-1.12,2.91-.15,6-.62,8.92-4,20.73-8.31,41.39-12.23,62.12-1.88,10-3.67,19.94-5.81,29.85-.32,1.46-.31,3-1.16,4.31a4.51,4.51,0,0,1-4.17.68,3.07,3.07,0,0,1-1.4-1c-1.37-5,.18-9.93,1.22-14.73,3.07-14.14,5.38-28.43,8.33-42.59,4.42-21.16,8.19-42.46,12.72-63.6,1.65-7.7.43-15.6.78-23.4a6.06,6.06,0,0,1,.86-3.26A1,1,0,0,1,1076.19,75.21Z" style="fill:#f3dfa5"/><path d="M987.17,157.18c2.08-12.05,4-24.13,6.26-36.16,5.19-28.13,10.52-56.23,15.76-84.35,2.06-11.05,4.08-22.11,6-33.19.26-1.53,1.33-2.21,2-3.27h4c1.51,1.69,1.44,3.69.91,5.66-4,14.74-6.62,29.8-9.82,44.71-3,13.76-6.37,27.45-8.36,41.42-.51,3.6-2.67,6.83-2.68,10.58a50.34,50.34,0,0,0-1.13,5.33c-.41,1.44-.71,2.91-1.07,4.36a36.3,36.3,0,0,0-1.72,8.61,10.42,10.42,0,0,1-.29,1.45,31.3,31.3,0,0,0-1.63,7.84,13.16,13.16,0,0,1-.38,2.24c-.6,1.73-.55,3.59-1,5.34-1.31,6.86-3,13.63-4.6,20.41-.23.94-.76,2.3-1.85,1.93C986.12,159.6,986.65,158.25,987.17,157.18Z" style="fill:#eacb7a"/><path d="M7.19.21A110.16,110.16,0,0,0,9.93,15.26c1.89,6.58,2.81,13.44,4.27,20.15S16.89,49,18.93,55.53c2.16,7,2,14.25,4,21.27,4.55,15.27,6.4,31.18,10.21,46.67,3,12.35,4.08,25.15,8.43,37.27,1,2.84.33,6.42,1.62,9.48-.4,2.46-1.82,2.93-3.95,2,.68-2.85-.28-5.45-.93-8.19-1.9-8-3.36-16.16-5.09-24.23-2-9.14-4.33-18.21-6-27.41-2.91-16.09-6.49-32-10.07-48C14.1,50.64,10.86,36.86,8,23,6.53,15.56,3.62,8.11,4.19.21Z" style="fill:#f9e9b9"/><path d="M32.19.21c2.34,11.13,4.63,22.26,7,33.38C41.47,44.08,43.94,54.52,46.15,65c3.15,15,6,30.08,9.21,45.07,4.26,19.95,8.73,39.85,13.1,59.77,0,.09-.21.24-.33.36a1.33,1.33,0,0,1-1.14.45c-.66-.25-1.1-.64-.9-1.43-6.16-14.57-6.85-30.46-10.95-45.52-1.94-7.12-3-14.39-4.47-21.59C49.44,96,48.85,89.76,47,83.84c-1.9-6.19-2.59-12.57-4.11-18.79-2.22-9-3.92-18.17-6-27.2-1.86-8-3-16.15-5-24.11-1.12-4.46-1.85-9-2.75-13.54Z" style="fill:#fae9bb"/><path d="M1030.19.21h3c1.48,3.66-.2,7.22-.85,10.61-1.92,9.9-4.74,19.64-6.59,29.55-2.06,11-4.8,21.94-7,33-3.15,15.78-6.69,31.48-9.92,47.24-3.83,18.66-8.25,37.2-11.92,55.9-.9,4.56-1.38,9.1-2,13.67-.86,2.63-1.24,5.78-5.31,5-1.53-1.31-1.21-3-.84-4.62,3.3-14.55,5.53-29.33,9.43-43.75,2.38-8.79,3.21-17.92,5.48-26.75,2.73-10.61,4.42-21.44,6.88-32.12s4.5-21.76,6.72-32.64c2-9.74,4.5-19.38,6.34-29.16,1.25-6.68,2.79-13.3,4.25-19.94C1028.37,4.07,1028.68,1.91,1030.19.21Z" style="fill:#f2da9a"/><path d="M1030.19.21c-.53,8.45-3.37,16.45-4.9,24.71-2.71,14.7-6,29.28-9.12,43.91-1.4,6.62-2.84,13.22-4.27,19.83-2.55,11.76-5,23.55-7.69,35.27-2.3,9.91-3.63,20-6.2,29.88-3.31,12.72-5.63,25.71-8.42,38.57a4.67,4.67,0,0,0,.61,2.83c.19,2.37-.85,3.41-3.24,3-1.22-1.64-1-3.48-.76-5.33a8.46,8.46,0,0,1,.39-1.51,47.78,47.78,0,0,0,2.27-13.68c3.3-14.16,5.21-28.62,9.22-42.64,1.63-5.7,2.16-11.71,3.24-17.57,2.12-2.84,1.16-6.35,2-9.46,5-18.77,8.53-37.86,12.5-56.85,3.19-15.28,6.29-30.57,9.45-45.86a8.23,8.23,0,0,1,2.88-5.12Z" style="fill:#f0d895"/><path d="M48.19.21h2C53,2.42,52.92,5.86,53.51,8.81,56.57,24,60,39.15,63.27,54.32q4.48,22.46,9.46,44.82c2.44,10.83,4.66,21.72,7,32.56,2.11,9.84,4.42,19.7,6.18,29.66,1.61,9.1,3.69,18.18,6,27.19.76,3,1.65,6.11.73,9.29-2,1.84-3.76.21-5.58-.46a3.25,3.25,0,0,1-.59-1.35,4.35,4.35,0,0,1,.43-2.16A38.26,38.26,0,0,0,85,180.78c-2.1-7.33-2.48-15.07-5.58-22.14-.52-1.2-.15-2.63-.26-4a23.6,23.6,0,0,0-1.1-4.31,21.87,21.87,0,0,1-1.12-5.18c.24-3.35-1.11-6.4-1.86-9.57a8.63,8.63,0,0,1-.18-1.5c-1.42-7.3-2.63-14.66-4.87-21.78A25.43,25.43,0,0,1,68.86,107c-1.51-8.05-2.62-16.19-4.93-24.08-1-3-2.33-6-2.11-9.33.3-4-.89-7.63-2.39-11.22-.14-.51-.25-1-.34-1.54C58,53.29,57.15,45.69,54.44,38.49a13.78,13.78,0,0,1-.56-3.85,10.66,10.66,0,0,0-1.63-6.35c-1.23-2.05-1-4.4-1.37-6.63a15.87,15.87,0,0,0-1.45-7.11,12.28,12.28,0,0,1-.47-1.4C49.19,8.8,46.78,4.62,48.19.21Z" style="fill:#f0d895"/><path d="M994.18,190.21c-1.2-7,1.76-13.47,3-20.13,2.52-13.2,5.29-26.35,8.07-39.49,4.58-21.63,9.06-43.28,14-64.84,3.24-14.23,5.6-28.64,9.4-42.76,2-7.46,3-15.18,4.53-22.78h3c-3.49,5-2.1,11.1-3.76,16.57-.88,2.9-1.38,6.1-2.22,9.11-3.15,11.16-5.28,22.6-7.38,33.92-3.36,18.1-7.31,36.09-11.07,54.09-2.81,13.45-4.95,27.1-9,40.33-2.75,9.05-3.44,18.64-6.37,27.69-.41,1.27.33,2.24.77,3.3C998.24,188.11,997,189.65,994.18,190.21Z" style="fill:#f3dda2"/><path d="M61.19.21c3.28,11.28,4.7,22.94,6.94,34.42,5.08,26.08,9.95,52.2,14.79,78.33,1.92,10.38,3.53,20.82,5.29,31.23.55,1.08,1,2.43-.39,2.91-1,.35-1.6-1-1.85-1.95-1.17-4.5-2.28-9-3-13.6-1.74-10.82-4.17-21.49-6.44-32.19C73.35,84.43,70,69.54,67,54.61c-2-9.57-4.63-19-6.07-28.69-1.07-7.23-3.34-14.21-4.27-21.46-.2-1.52-.55-3,.57-4.26Z" style="fill:#eacb7a"/><path d="M.19,125.21v-40a1,1,0,0,1,1.49.32,9.64,9.64,0,0,1,.91,5.06c-1.74,18.92,3.59,37,6.92,55.25,3.29,18,7.18,35.9,10.26,53.94,1,5.57,2.52,11,3.28,16.64.27,2,.71,3.95,0,5.92a2.79,2.79,0,0,1-1.09,1.3c-1.95.69-3.17-.24-4.06-1.85A16.42,16.42,0,0,1,16,216.18C13.43,198.63,9.6,181.33,6.17,164c-2-9.9-3.4-19.9-5.35-29.81C.33,131.19,1.31,128.12.19,125.21Z" style="fill:#f5e2ab"/><path d="M.19,10.21a2.07,2.07,0,0,1,2,1.83C4.46,22.33,6.91,32.58,9.11,42.88c3.44,16.1,7,32.17,10,48.37,1.75,9.74,4.74,19.19,5.86,29.09.68,6,3,11.74,4.26,17.71,1,4.72,2.39,9.28,2,14.16-2.48.05-2.77-2-3.42-3.65A30.68,30.68,0,0,1,26,141.81c-2.74-16.89-7-33.46-10.32-50.24-.59-3-2.33-5.49-3.54-8.21-3.09-12.21-5-24.65-7.33-37C3.56,39.68,1.7,33.09,2.19,26.21a10.06,10.06,0,0,0-2-7Z" style="fill:#f5e3ad"/><path d="M1075.19,127.21c.44-3-1-6.19,1-9v28c-.86,1-.55,2.23-.49,3.34.9,15.63-2.66,30.63-6,45.71-2.23,10-3.34,20.22-5.56,30.24-4,2-7.84.89-11.62-.76a1.11,1.11,0,0,1-.3-1.53h4c3.62-4.32,3.17-10,4.58-15,2-7.15,2.1-14.8,4-22,2.28-8.71,2.72-17.72,5.18-26.33C1073,149.24,1073.45,138.12,1075.19,127.21Z" style="fill:#f7e6b3"/><path d="M57.19.21c3,13.5,5.16,27.16,8.47,40.62,2.16,8.77,3.53,17.8,5.5,26.66,1.64,7.4,3.34,14.8,4.73,22.26,1.68,9,3.67,18,5.52,26.94,2,9.52,3.48,19.14,5.79,28.6.11.45,0,1.74.88.38.23-.37.1-1,.14-1.47,1.41,1.08.86,2.63,1,4-1.19,1.17.59,3.21-1.23,4.2-3.1-2-3.42-5.49-3.9-8.61a66.64,66.64,0,0,0-2.58-11,8.53,8.53,0,0,1-.37-1.51,24.59,24.59,0,0,0-1.73-8.92A8.94,8.94,0,0,1,79,120.8c-.37-4.71-1.84-9.19-2.89-13.76-2.76-15-6.19-29.84-9.52-44.69C63.46,48.28,61.07,34.05,57.66,20c-1.17-4.83-2.07-9.73-3.16-14.58-.4-1.79-.58-3.63.68-5.25Z" style="fill:#eacf82"/><path d="M55.19.21C56.9,12.13,60,23.77,62.43,35.55c3.93,19,7.71,38.12,12,57.09,1.08,4.84,1.89,9.71,2.8,14.57.72,4.73,1.93,9.35,3,14q0,.5,0,1c1.18,2.89,1.22,6,2,9q0,.5,0,1c.51,1.94,1.33,3.87.27,5.88-1.76.66-1.94-.7-2.17-1.8-2.35-11.33-5-22.61-7.18-34-3.12-16.08-7-32-10.2-48.06-.77-3.88-1.08-7.88-2.5-11.62C57.51,29.11,54.76,15.55,51.77,2A2,2,0,0,1,52.19.21Z" style="fill:#edd289"/><path d="M1064.19,225.2c-.52-.92-1.65-1.35-1.18-2.94,2.45-8.41,2.73-17.28,4.64-25.7,1.85-8.15,3.11-16.48,5.54-24.47,2.09-6.87,1.93-13.74,2-20.7,0-1.75-.67-3.71,1-5.18v25c-1.12,2.55-.4,5.23-.48,7.84-.28,8.44-.79,16.7-3.55,24.93-1.68,5-1.41,10.77-2.57,16.13-.52,2.4-1.17,4.52-3.77,5.38A2,2,0,0,1,1064.19,225.2Z" style="fill:#f9e9b9"/><path d="M1000.19,103.21c-1.06-5.45,2.29-10.08,2.93-15.31,1.21-9.95,4.34-19.65,6.14-29.55,2.71-14.94,7.24-29.5,9.11-44.62.56-4.54,3.47-8.67,2.83-13.52h3a3.26,3.26,0,0,1,.35,2.42c-2.74,9.75-3.25,19.94-6.14,29.7a107.21,107.21,0,0,0-3.87,18.45c-.5,4.47-2.35,8.62-3,13.06-2.59,17-7.85,33.5-10.19,50.58-1.09,2.36-1.07,5.3-3.49,7a.9.9,0,0,1-1.08-.84c-.21-2.91,1-5.56,1.45-8.36.14-1.38-.46-2.95,1-4C1000.42,106.72,999,104.7,1000.19,103.21Z" style="fill:#eacf82"/><path d="M1000.18,115.21c1.29-7.47,1.54-15.09,3.87-22.41,3.34-10.51,4.33-21.56,6.85-32.27,3.1-13.14,6.16-26.29,8.75-39.53,1.36-7,2.2-14,4.53-20.78h2c.39,4.38-1.09,8.5-1.95,12.68-5,24.31-10.3,48.54-15.18,72.87-.29,1.46-.93,2.84-1.19,4.31-.59,2.06-1.41,4.08-1.1,6.31-.17,1.43-.67,2.79-.88,4.21a45.52,45.52,0,0,0-2.22,7.72c-1.1,2.41.12,5.13-1,7.55a1.7,1.7,0,0,1-1.25.86C1000.6,116.55,999.88,116.3,1000.18,115.21Z" style="fill:#edd28a"/><path d="M1065.19,225.21c4.66-4.91,4.26-11.34,4.79-17.33a24.76,24.76,0,0,1,1.61-6.93c2.2-5.79,2.72-12,3.59-18.14.55-3.84-1.07-7.88,1-11.6v57C1072.19,228.42,1068.34,228.1,1065.19,225.21Z" style="fill:#fbecc0"/><path d="M1005.19,100.21a6.72,6.72,0,0,1,1-4c-1-1.93.62-3.34,1-5q2.28-12.1,4.56-24.2c2.93-15.42,7.35-30.52,9.56-46.11,1-7,3.21-13.8,4.88-20.69h2c-4.68,19.24-8.45,38.66-12.11,58.11-1.86,9.89-4.21,19.7-6.7,29.45-1.51,5.91-1.07,12.24-3.88,17.85l-1.31,2.59-.42-.64C1003.38,104.95,1004.65,102.65,1005.19,100.21Z" style="fill:#eed48d"/><path d="M.19,228.21v-57c2.72.31,2.33,2.58,2.28,4.18a100.77,100.77,0,0,0,4.64,33.32c1,3.29.39,6.92,1.35,10.32.41,1.48.65,2.9,2.09,3.75,1,.58,2,1.15,1.85,2.53C8.76,228.07,4.81,229.54.19,228.21Z" style="fill:#fbedc2"/><path d="M1062.19,82.21a1.87,1.87,0,0,1-.8-2.15c4.23-15.48,5.88-31.53,10.3-47,1.08-3.78,1.71-7.69,2.43-11.57.24-1.29.62-2.21,2.07-2.3v7c-.94,1-.24,2.29-.76,3.35a24,24,0,0,0-.29,4.47c-2.49,13.32-4.2,26.78-7.76,39.89C1065.6,76.64,1065.05,80.15,1062.19,82.21Z" style="fill:#f5e4af"/><path d="M10.19,224.21c-2.83-.55-2.85-2.84-3-5A114.06,114.06,0,0,0,3,198c-2.12-7.52-1.68-15.05-1.83-22.63,0-1.44.41-3-1-4.16v-19a1,1,0,0,1,1.47.27,5.08,5.08,0,0,1,.8,2.4,103.58,103.58,0,0,0,4.23,31.24,56.25,56.25,0,0,1,1.95,16.17c-.54,5.6,1.46,10.84,2.31,16.24C11.26,220.56,11.67,222.47,10.19,224.21Z" style="fill:#faebbf"/><path d="M1042.16,238.18c.68-4,.58-8.12,2-12,10.66,2.06,21.44,3.48,32,6v8a1.38,1.38,0,0,1-1.33.28,29.66,29.66,0,0,0-12.92-5.48,17.59,17.59,0,0,0-5.66-.49c-1.17,0-2.34,0-3.51,0a12.08,12.08,0,0,0-3.91.55,18.48,18.48,0,0,0-2.36.82c-1.38.52-2.16,1.79-3.27,2.65A.9.9,0,0,1,1042.16,238.18Z" style="fill:#fceec2"/><path d="M1043.08,238.16a3.16,3.16,0,0,1,3.07-3c2.41,0,3.88,1.7,5.4,3.21,4.52,4.5,10.3,7.09,15.61,10.4,2.7,1.68,6,1.69,9,2.46v5a29.44,29.44,0,0,1-13.06-1.9c-1.29-.23,2.81-1.75-.6-2-2.91-.18-5.37-2.47-7.64-4.41C1051,244.62,1046.65,241.86,1043.08,238.16Z" style="fill:#ebcd84"/><path d="M.19,247.21v-5c4.76,1.17,8.62-1,12.43-3.37,1.7-1.07,3.07-2.55,4.75-3.6.13-.18.63-.4.5-.42-1.2-.17-2.47-.15-1.4-1.95,4.24-1.54,8.44-2,12.5.53.58.77.63,1.67-.17,2.15-7.51,4.45-13.64,11.13-22.3,13.71C3.86,250.05,1.28,251,.19,247.21Z" style="fill:#dcbd75"/><path d="M31.19,223.21a2.11,2.11,0,0,0,2,1c1.76,4.49-1.23,5.56-4.58,6.14-7.16,1.24-14.3,2.54-21.42,4a13.07,13.07,0,0,0-4.69,1.46,2.53,2.53,0,0,1-2.31.43v-6c7.1-2.79,14.65-3.37,22.08-4.57,1.12-.18,2.12-.43.17-1.15a1.16,1.16,0,0,1-.35-.83q0-.46.09-.46h0a5.25,5.25,0,0,1,3.18-1.32C27.41,221.86,29.5,221.68,31.19,223.21Z" style="fill:#f7e3ad"/><path d="M10.2,255.25c-3.23,1.48-6.64,1-10,1v-5c9.17-.63,16.22-5.91,23.46-10.74,2.86-1.9,5.14-4.68,8.6-5.68a2.45,2.45,0,0,1,2.39,2.3c-1.93,4.08-5.71,6.21-9.13,8.72C20.51,249.14,14.66,251.07,10.2,255.25Z" style="fill:#e9cb82"/><path d="M32.18,235.26c-8.35,7-17,13.4-27.62,16.73-1.65.52-3.16.88-4.37-.78v-4c1.36,1.93,2.92,1.95,5.12,1.17a51.92,51.92,0,0,0,16.52-9.65,32.62,32.62,0,0,1,7.36-4.57C30.64,233.3,31.57,233.83,32.18,235.26Z" style="fill:#e3c57c"/><path d="M1076.19,232.21c-9.79.29-19.15-2.26-28.55-4.44-1.08-.25-3.29,1-3.46-1.58l-.11-1.88c.53-1.55,1.8-2,3.24-2.24a4.79,4.79,0,0,1,3.88,1.14h1q0,.5,0,1c6.45,2.88,13.66,1.75,20.26,3.87,1.23.4,2.64.24,3.74,1.13Z" style="fill:#f6e1a9"/><path d="M38.19.21c.7,10.09,4,19.71,5.22,29.76,1,8.59,3.81,16.94,6.15,25.32,1,3.41,1.9,7.2.63,10.92-5-21.93-10.3-43.79-14-66Z" style="fill:#f8e5b0"/><path d="M1071.19.21q-3.13,15.19-6.26,30.39c-1,4.62-1.18,9.44-3.74,13.61-2.49-3.65.36-7.1.53-10.64.16-3.18,1.71-6.22,2.47-9.37-.38-8.29,2.61-16,4-24Z" style="fill:#faecbe"/><path d="M52.19.21c3.63,13.86,6.23,28,9,42,.27,4,2.49,7.85,1,12-3.41-11.67-5.24-23.7-8-35.53-1.42-6.14-2.69-12.31-4-18.47Z" style="fill:#efd58f"/><path d="M55.19,34.21v4c1.13,2.8,2.32,5.59,1.43,8.72a1,1,0,0,1-1.43.28c-2.6-4.31-2.71-9.38-3.65-14.07-2.21-11-4.31-22.08-7.35-32.93h3c1.74,4.16.78,8.95,3,13q0,.5,0,1c.82,2.29.81,4.82,2,7,.07,2.37-.39,4.82,1,7C54,30.17,54.08,32.36,55.19,34.21Z" style="fill:#f2da9b"/><path d="M1076.19,251.21c-5.4,2-9.71-1-13.72-3.58-5.76-3.68-11.7-7.26-16.33-12.48l2-.95c2.51,0,4.2,1.48,5.83,3.2,5,5.22,12,6.8,18.12,10.09.83.45,1.57-.23,2.2-.8s1.1-.84,1.86-.47Z" style="fill:#e3c57d"/><path d="M1076.19,246.21l-1,1a2.41,2.41,0,0,1-2.72.64c-6.15-3-12.76-5.29-17.85-10.13-1.19-1.13-3.08-2.19-2.41-4.46h4c3.73,2.62,8.15,4.07,11.64,7.13,2.37,2.07,5.42,1.84,8.34,1.82Z" style="fill:#dbbb74"/><path d="M22.19,224.21c2,.31,4.29-.75,6.8,1.58-10.08,1.1-19.25,3.86-28.8,4.41v-2l12-3a3.08,3.08,0,0,1,1.05-.8,6.13,6.13,0,0,1,1.3-.27c.86-.07,1.73-.07,2.6-.07,1.48,0,2.94.22,4.42.14Z" style="fill:#f2da9a"/><path d="M18.19,235.21c-3.55,5.51-9.6,7-15.1,9.39-2.4,1-1.52-2.09-2.91-2.39v-2a3.18,3.18,0,0,1,1.93-.86c3.76-.61,6.57-3.59,10.4-4.12C14.44,235,16.29,234.15,18.19,235.21Z" style="fill:#d4b46e"/><path d="M1076.19,242.21c-1.72,2.74-4.64,1.7-6,.68-4.57-3.34-10.52-4.69-13.94-9.63,2.08,0,4.24-.48,6.12.89,4.19,2.25,8,5.38,13,5.9a2.37,2.37,0,0,1,.9.17Z" style="fill:#d6b66f"/><path d="M1076.19,229.21c-8,.38-15.53-3-23.49-3.09-1.35,0-.61-1.19-.51-1.91,4,.18,7.93,1.56,12,1h1c3.65,1.07,7.56,1.15,11,3Z" style="fill:#f2db9b"/><path d="M1.19,85.21h-1v-30c2.08,3.85.49,8,1,12,.53,4.33,1.57,8.61,1.48,13C2.63,82,2.65,83.83,1.19,85.21Z" style="fill:#f3dfa5"/><path d="M1.19,152.21h-1v-27c2,2.81.56,6,1,9,.57,4.33,1.54,8.62,1.52,13C2.7,149,2.64,150.83,1.19,152.21Z" style="fill:#f9e9b9"/><path d="M2.1,240.06l-1.91.15q0-2,0-4l1-1c2.7-.72,5.36-2.08,8.24-.7C8.61,238.5,4.78,238.52,2.1,240.06Z" style="fill:#fbefc5"/><path d="M1076.19,75.21h-1c-2.49-3.08-1.22-6.69-1.4-10.09-.11-2.15,0-4.32-.05-6.48.06-3.35-.55-6.77.88-10a1.12,1.12,0,0,1,1.57-.43Z" style="fill:#f2dda0"/><path d="M1076.19,48.21h-1c-2.25-2.72-1.18-5.8-1.11-8.84,0-2,1.11-4.1.11-6.16.14-1.38-.46-3,1-4,.94.8,0,2.22,1,3Z" style="fill:#f1da9b"/><path d="M50.19,13.21c-3.18-3.83-2.64-8.52-3-13h1Z" style="fill:#f2da9a"/><path d="M1076.19,32.21c-1.18-.72-1-1.9-1-3s-.17-2.28,1-3Z" style="fill:#efd896"/><path d="M1074.19,33.21c2.2,4.88.43,10,1,15v10c-1.28,2.11-.79,4.53-1.18,6.79-2.3,13.4-5.17,26.7-7.6,40.08-2.85,15.69-6.5,31.22-9.19,47-2.52,14.71-5.21,29.43-8.88,44-2.07,8.2-2.16,16.84-5,24.91a17.08,17.08,0,0,1-1.12,3.29l-4,.06c-2.3-3.19-1.23-6.58-.66-10,1.2-7.13,3-14.13,4.32-21.23a9.91,9.91,0,0,1,.44-2.51A6.57,6.57,0,0,1,1043,189c2.76-3.31,2.36-7.5,3-11.34,4.59-27.7,10.09-55.23,15.1-82.85,1.27-7,2.55-13.95,5.07-20.61Z" style="fill:#efd896"/><path d="M1042.18,224.18c-1.86-5.07,2.32-9,2.49-13.8.41-11.21,4-21.93,6.08-32.83,1.36-7,2-14.33,4.3-21.3,2.34-7.15,2.15-14.87,3.9-22.24,2.8-11.81,5-23.76,7.36-35.68s4.61-23.82,6.83-35.75c.31-1.69.64-3.25,2-4.38v20c-2.61,23.11-7.78,45.75-12.31,68.52q-7.38,37.13-14.55,74.29a4.74,4.74,0,0,1-1.14,2.18l-3.13,1.1Z" style="fill:#f1da9b"/><path d="M2.19,26.21Q4.68,39,7.17,51.78q3,15.71,6,31.43c7.26,26.64,10.88,54,16.35,81,1.42,7,2.19,14.09,4,21,2.08,2.82,4.36,5.56,4.29,9.37.14,7.86,2,15.46,3.65,23.07.54,2.44,1.67,4.91-1.32,6.6l-4-.08c.45-5.88-1.28-11.62-2.55-17.12-1.93-8.38-3-16.84-4.45-25.27a5.16,5.16,0,0,0-.08-1c-2.48-6.25-3.61-12.83-4.67-19.41-1.77-11-4.8-21.8-6.68-32.75-2.06-12-4.14-24-6.63-35.9-3.34-15.95-6-32-9.57-47.94A34.31,34.31,0,0,1,2.19,26.21Z" style="fill:#efd896"/><path d="M178.15,179.2q3.91,20.85,7.79,41.71a22.69,22.69,0,0,1,.12,3.45c-3.83-.42-7-2.94-10.83-3.37a114.07,114.07,0,0,0-21.51,0,4.5,4.5,0,0,1-3.3-.42,1.48,1.48,0,0,1-.47-1.51c1.11-1.91,3-2.06,4.89-2.19,1.65-.26,3.8.7,4.73-1.44,1.54-3.53-2.75-3.75-3.6-6,1.25-2.06,3.64-2,5.48-2.9.83-.34,1.66-.68,2.48-1.06,1.39-.61,2.75-1.28,4.08-2a10.23,10.23,0,0,1,3.13-1c3.63-.64,3.94-3.26,3.72-6.21-.43-4.92-2.37-9.52-3-14.4a13.18,13.18,0,0,1-.08-1.94c.1-2-.57-4.37,2.65-4.72S177.54,177.28,178.15,179.2Z" style="fill:#f4e1a9"/><path d="M891.37,225.38c.51-7.43,2.36-14.63,3.74-21.92,1.72-9.08,3.4-18.17,5.1-27.26,5.48-1.7,6.14-.92,5.32,6.25-.56,5.4-2.66,10.56-2.63,16.05a18.36,18.36,0,0,0,3.43,3,20.3,20.3,0,0,0,3.24,2.07,29.1,29.1,0,0,0,4.79,2c1.63.79,3.34,1.37,5,2a3.67,3.67,0,0,1,2,1.84c-.73,2.23-2.5,1.64-4.11,1.52s-3.89-1.82-4.22,1.33c-.26,2.46.46,4.68,3.62,4.83a11.13,11.13,0,0,1,2,.34c2.16,1.08,5.53-.72,6.66,2.79-1,1.13-2.45,1.22-3.85,1.32a14.48,14.48,0,0,1-1.66.05c-4.79-.07-9.57,0-14.36,0a22.12,22.12,0,0,0-11.82,3.09A3.23,3.23,0,0,1,891.37,225.38Z" style="fill:#f4e1a9"/><path d="M101.21,231.15l-29-3.92c-.31-1.38.75-1.69,1.67-2a14.16,14.16,0,0,1,4.92-.16c2.4.15,5.27,2.09,7.07.12s-.65-4.24-1.42-6.33c-.53-1.45,0-2.18,1.3-2.66,6.45,0,12.7,1.5,19,2.35a1.38,1.38,0,0,1,.72,1.3c.38.56-1.65.25-.42,1.08,2.94,2,3.18,5,2.48,7.87C106.67,232.3,103.17,229.9,101.21,231.15Z" style="fill:#e4c070"/><path d="M85.2,217.2c-.46.47-.19.77.15,1.2,2,2.52,3.92,5.91,2.36,8.44-1.36,2.19-5,.14-7.56-.18s-5.43-1.31-8,.57c-4.06.41-8-.61-12-1.09-.17-1.43.93-1.65,1.89-2a11.56,11.56,0,0,1,3-.23c3.25.1,3.7-1.64,3.57-4.5-.12-2.63-3-5.09-.53-7.87a4.87,4.87,0,0,1,3.08-.12c3.21,1.38,6.66,2,10,3C82.69,214.89,85.07,214.54,85.2,217.2Z" style="fill:#e7c675"/><path d="M1043.18,192.18c.12,6.84-2.93,13.1-3.7,19.85-.46,4-1.35,8.08-1.29,12.22l-.48.05-.49,0c-.82,0-1.64,0-2.46-.06-5.35-.14-6.59-1.46-5.2-6.57,1.6-5.86.94-12.16,3.66-17.76a8.05,8.05,0,0,1,.44-1.39c1.22-1.62,3-2.74,4.13-4.44a5.16,5.16,0,0,1,1.11-.72C1040.34,193,1041.47,191.49,1043.18,192.18Z" style="fill:#eed58f"/><path d="M40.17,224.26c.76-1.49,1.5-3,.64-4.69-3.28-6.27-1.9-13.56-4.44-20-.62-1.58-.92-3.95,1-5.45a1.72,1.72,0,0,1,1.35,0,33.91,33.91,0,0,0,4.91,2.76,4.71,4.71,0,0,1,2.1,3.08c.16,5.52,2,10.75,2.92,16.12,1.25,7,1.36,7-4.41,8,1,.25,3.36-1.67,4.9,1.11C46.14,225.16,43.06,225.65,40.17,224.26Z" style="fill:#eed58f"/><path d="M1006.18,227.22l-.45.1-.46-.06c-2.78,0-5.54-.23-8.31.51-2.35.62-5.06,1.31-6.59-1.46s-1.37-5.9,1.41-7.9c1.2-.87,0-1.21.21-1.74,5.52-3.19,11.59-4.48,17.81-5.3,1,.38,1.77,1,1.24,2.19a29.18,29.18,0,0,0-1.55,3.64c-1.49,5.32-.88,6.22,4.71,6.8a8,8,0,0,1,1.94.41c.71.38,1.27.84,1,1.77l-2.83.09C1011.73,227.47,1008.78,225.85,1006.18,227.22Z" style="fill:#e6c675"/><path d="M992.17,217.19c.47.18,1.76.18.93.92-2.59,2.3-3.48,5.12-1.6,7.82s4.69,1.09,7.22.62c2.2-.41,4.55-1.13,6.55.71l0,0c-1.89,1.1-4.12-.19-6,.85l-1.9.17c-1.58,1-3.5-.11-5.09.81-3.35.33-6.6,1.56-10,1.15a1.4,1.4,0,0,0-1.32-.47c-2.27.37-4.8,1.33-6.32-1.18-1.65-2.72-.44-5.36,1.1-7.88a3.94,3.94,0,0,1-2.53.29,2.24,2.24,0,0,1-1.18-.9,1.37,1.37,0,0,1,.56-1.37c1.46-.89,3.09-.79,4.7-.85,3.52.15,6.85-.93,10.24-1.63C989.13,215.95,990.8,215.85,992.17,217.19Z" style="fill:#e4c070"/><path d="M176.12,220c3.59.79,7.15,1.67,9.94,4.31,1.05,4.59-2.28,6.45-5.31,8.46s-6.22,2.71-9.54,3.51c-1.35-1.84.33-3.45.44-5.18.4-6.39-1.5-8.46-8.11-8.56-1.73-.36-4.24.46-4.09-2.71C165,219.75,170.57,219.42,176.12,220Z" style="fill:#a98747"/><path d="M892.44,224.32c3-3.44,7.13-4.05,11.27-4.18,5.47-.16,11,.06,16.44.12-.79,3.11-3.42,1.9-5.36,2.3-8.83-.18-6.19.65-8.24,9.38-.32,1.38.88,2.93-.37,4.25-5.49-1.2-10.7-2.88-13.91-8A27.12,27.12,0,0,0,892.44,224.32Z" style="fill:#a98747"/><path d="M101.21,231.15c3.33-1,6.88-1.38,5.14-6.82-1-3.11-3-2.9-5.3-3.43,1.38-1.23,2.85-.44,4.15-.7,3.24-2.31,7-1.09,10.48-1.46,1.63.22,3.39.09,4.58,1.58.56,2.55-3.36.81-3,3.17.29,1.64.55,3.26.8,4.88.46,3-.57,4.78-3.83,4.78Z" style="fill:#dfba6b"/><path d="M1034.19,199.21c-1.06,6.05-1.73,12.21-3.31,18.12-1.16,4.33-.77,6.39,4.2,6,.68-.06,1.42.64,2.14,1-3.22,1.66-6.69.7-10,.93-.67-.8-2-.2-2.57-1.3-1-2.1-.49-4.22.17-6.23,1.68-5.12,1.59-10.7,4.06-15.61a8.16,8.16,0,0,1,1.94-2.25C1031.84,199.18,1032.89,198.5,1034.19,199.21Z" style="fill:#edd289"/><path d="M934.19,238.24a34.47,34.47,0,0,1-16.05.11c-1.42-3.79-.49-7.59.26-11.28,1-5,2.58-5.9,8.13-5.62,1.81,1,1.71,2.61,1.45,4.26-.2,1.29-.64,2.53-.81,3.84-.77,5.74-.62,5.94,5.22,6.59C933.35,236.52,934.48,236.78,934.19,238.24Z" style="fill:#bb9652"/><path d="M159.2,220.29c1.44,1.54,3.31.68,5,.92,2.88,4.16,2.29,9.14,3.07,13.75.44,2.62-2.2,1.44-3.57,1.64.82.52,2.16-.41,2.86.78-2,1.22-4.18.94-6.34.88a3.54,3.54,0,0,1-1.72-1.46,38.68,38.68,0,0,1-1.34-8.25c-.33-3.69-1.86-5.46-5.62-5a20.27,20.27,0,0,1-5.32-.47,2.5,2.5,0,0,1-1.21-1,1.89,1.89,0,0,1,1.39-1.72,5.4,5.4,0,0,1,2.35-.23c2.82,1.24,5.57.13,8.35-.24A2,2,0,0,1,159.2,220.29Z" style="fill:#b3904e"/><path d="M49.17,225.15c-1.65-1.94-4.2-.14-6.79-1.95,7.3,1.4,6.16-2.17,5-6.27-1.22-4.26-1.79-8.69-2.85-13a6.39,6.39,0,0,1,.68-4.75c1-.46,1.69.06,2.43.57a10.24,10.24,0,0,1,1.48,1.45,11.17,11.17,0,0,1,1.56,2.46,114.94,114.94,0,0,1,3.81,20.4c-1.08,1.68-3,0-4.27,1.11Z" style="fill:#edd288"/><path d="M906.18,236.2c-2.48-4.28-.13-8.61.41-12.71s4.95-1.63,7.59-2.27c2.27,3.25,1.59,6.69.28,9.94-1,2.48-1.34,4.36,2.53,5.37-2.52,1.67-4.37,1.16-6.19.81A6.86,6.86,0,0,1,906.18,236.2Z" style="fill:#ae8b4b"/><path d="M1043.08,238.16c4.16.79,6.6,4.23,9.73,6.54,3.32,2.45,6.36,5.3,10.22,6.88,2.42,1,.68,1.8.11,2.73-6.64-1.23-12.74-3.57-17.82-8.22-2.37-2.17-3.79-4.59-3.15-7.9Z" style="fill:#efd389"/><path d="M910.8,237.33l4.4-.25c-3.64-.19-4.11-2.69-2.69-4.9,2.28-3.56,1.44-7.27,1.68-11,2-.32,4.2.78,6-.94l1.06,0a6.66,6.66,0,0,0,5.31-.16c2-.28,3.9-.44,5.63.83a1.25,1.25,0,0,1-.1,1.58,3.85,3.85,0,0,1-4.87-.33c-6.13,0-7.7,1.44-7.94,7.83a31.19,31.19,0,0,1-1.11,8.31C915.65,238.31,913.12,238.61,910.8,237.33Z" style="fill:#b3904e"/><path d="M166.54,237.38,162,237c1.29-1.54,3.05-.17,4.15-1.07l-2-14.73c8.56,0,11.47,6.24,7,15.1C169.83,237.45,168.17,237.35,166.54,237.38Z" style="fill:#ae8b4a"/><path d="M9.2,235.28c-2.66-1.45-5.35.73-8-.07,4.45-3.55,10.1-2.5,15.12-3.89,4.12-1.14,8.46-1.46,12.68-2.26,2.59-.49,4.91-1.4,4.21-4.84l1.09.1c-.82,4.37,1.38,8.52.93,12.87q-.52.64-1,0a3.38,3.38,0,0,0-2.07-1.87l-3-1.09c-4.36-1.41-8.72-1.77-13.07,0C13.92,235.18,11.73,236.3,9.2,235.28Z" style="fill:#fceec3"/><path d="M178.15,179.2c-1.18-1.14-1.46-3.91-3.86-2.89-2.93,1.25-.28,4-1.1,5.9-1.24,2.14.09,4.21.22,6.3.19,3-.39,5.31-3.56,6.3a6.29,6.29,0,0,1-2.46.21c-1.73-.49-3.69-.37-5.09-1.79-.13-.49-.1-1.2.32-1.28,5.07-1,5.29-4.69,5.51-8.85.34-6.3.57-6.29-5.8-7.52-2.2,0-4.29-.74-6.45-1-.48,0-1-.06-1.45-.1a11.47,11.47,0,0,1-1.45-.18c-1.24-.28-2.38-.7-2.78-2.09a2.42,2.42,0,0,1,2.67-.94c7.9,2,16,2.24,24,3.38a5.37,5.37,0,0,1,1.36.61Q178.2,177.23,178.15,179.2Z" style="fill:#f7e6b3"/><path d="M973.18,220.22h4.43a7.05,7.05,0,0,0-2.72,6.38c.13,3.83,3.56,2.16,5.68,2.7a7,7,0,0,1,1.63.93,58,58,0,0,1-12,1.93c-2.11-.92-6.21,1.32-5.69-3.77.77-7.62,1.73-8.77,7.36-7.92A1.78,1.78,0,0,0,973.18,220.22Z" style="fill:#e1bc6d"/><path d="M904.19,183.21a6.8,6.8,0,0,1,.09-2.41c2-4.59-.7-4.85-4.07-4.58a8.41,8.41,0,0,1-.11-.88c7.61-1.65,15.19-3.54,23.08-2.15-1.26,1.54-3.08,1.81-4.86,2.19-1,.14-2,.21-2.94.26-4.31.09-5.63,2.19-5,6.42s1,8.43,5,11.1c-1.08,1.3-2.68,1.38-4.14,1.79a5,5,0,0,1-2.3-.19c-4.18-2.67-4-6.88-3.49-10.95C905.7,181.49,904.1,184.32,904.19,183.21Z" style="fill:#f7e6b3"/><path d="M1025.19,224.2a2.05,2.05,0,0,1,2,1,29.25,29.25,0,0,1-10,1l-1-1c-1.62-1.85-1.36-3.95-.62-6,1.34-3.68,1.84-7.58,3.06-11.3,1.58-2.43,3.57-3.93,6.65-2.87.94,4.58-.83,8.8-1.92,13.08C1022.71,220.69,1022.93,222.67,1025.19,224.2Z" style="fill:#eacd7f"/><path d="M50.21,225.16c1.06-1.41,2.61-.81,4-1,1.65-1.65,1.45-3.6.83-5.57-1.19-3.8-1.14-7.88-2.75-11.58-.43-1-.37-2,1-2.35A7.22,7.22,0,0,1,59,207.77c2.45,5.56,4.73,11.15,3.14,17.44a2.05,2.05,0,0,0-2,.94A28.18,28.18,0,0,1,50.21,225.16Z" style="fill:#eacd7f"/><path d="M34.25,237.13a7.27,7.27,0,0,0,1,0c1.94,4.08-.11,7.06-3.05,9.36a33.8,33.8,0,0,1-13,6.61c-1-.48-2.57.23-3-1.19s.91-1.9,1.95-2.35c2.58-1.11,4.74-2.87,7-4.4Z" style="fill:#efd38a"/><path d="M114.21,233.16c2.41-1.22,3.67-2.68,2.33-5.68-.67-1.51-.27-3.5-.36-5.27,8.12-1.4,9.11-.92,10.55,5.2,1.11,4.68-.65,6.69-5.59,6.37a3.39,3.39,0,0,0-1.91.32A8.34,8.34,0,0,1,114.21,233.16Z" style="fill:#d8b366"/><path d="M951.26,235.35c-1.21,1.06-2.68.84-4.11.81-1.4-.47-3.06.47-4.32-.78-1.92-5-.71-11.07,2.78-14a8.38,8.38,0,0,1,6.3.28c1.65,1.56,1,3.46.38,5.06A19.77,19.77,0,0,0,951.26,235.35Z" style="fill:#cfaa60"/><path d="M943.19,235.21c1.37.14,2.91-.46,4,.94a36.76,36.76,0,0,1-13,2.09,2,2,0,0,0-2-1c-1.86-5.26-.32-10.16,1.57-15a5.28,5.28,0,0,1,5.44-.74c3,2.71.25,5.54,0,8.24C938.84,233,939.26,235.22,943.19,235.21Z" style="fill:#c7a25a"/><path d="M951.26,235.35c-2.12-1.69-2.42-3.54-1.2-6.07,1.05-2.19,1.44-4.7,2.12-7.07a4.17,4.17,0,0,1,2.53-1.89,12.07,12.07,0,0,1,6.38,0,1.93,1.93,0,0,1,1.32,1.68c-5.76,2.52-3.82,7.74-4.23,12.13A19.35,19.35,0,0,1,951.26,235.35Z" style="fill:#d6b063"/><path d="M144.17,238.25a21.3,21.3,0,0,1-9-1.1c-.22-.89.31-1.33,1-1.7,5.21-1.36,5.22-1.46,3.31-6.72-.88-2.43-2.2-5,.32-7.29,1.92-.68,3.75-.71,5.36.76h0c.92,5,3.65,9.74,2.24,15.1C146.57,238.41,145.12,237.46,144.17,238.25Z" style="fill:#c6a159"/><path d="M119.23,234.1c1-1.22,2.4-.75,3.66-.93,2.77-.38,3.38-2.17,2.91-4.61q-1.55-8.1-9.62-6.36c.65-.93.65-.93,4.08-1.06a5.21,5.21,0,0,1,5.55-.91c1.49.91,3.51.59,4.75,2.06,1,2.16.94,4.52,1.27,6.79.76,5.16.48,5.48-4.77,6.36a1.14,1.14,0,0,1-.85-.18c-1.55-1.32-3.62,0-5.22-1Z" style="fill:#d3ad61"/><path d="M127.06,235.45c3.34-1.25,4.79-3,3.35-7-.64-1.74-1.23-4.16-.23-6.28,4.23-1.54,5.93-1,6.23,2.9.29,3.66,2,7.46-.23,11.09l-1,.95A23.85,23.85,0,0,1,127.06,235.45Z" style="fill:#cfa960"/><path d="M962.19,222.21l-1-1a1.06,1.06,0,0,1,.32-1.47c1.83-1.09,3.86-.78,5.84-.87,1.74,0,3.46.06,4.84,1.34l1,0c-.24.22-.52.66-.72.63-7-1.16-5.7,5.1-6.82,8.36s3.61.89,4.53,2.95a17.85,17.85,0,0,1-7,1.07c-3-.12-4.09-1.81-3.38-4.56C960.38,226.45,960.63,224.07,962.19,222.21Z" style="fill:#ddb96a"/><path d="M233.18,177.2l37.06,0c-1,1.14-2.41.92-3.71.92H215.84c-1.3,0-2.68.2-3.72-.92Z" style="fill:#f9e9b8"/><path d="M962.19,222.21c-.11,1.92.08,3.77-1,5.68-1.18,2.11-.49,4.24,2,5.34a8.75,8.75,0,0,1-5,.95c-3.59-3.27-.53-7.08-.6-10.57C957.53,221.36,960.54,222.54,962.19,222.21Z" style="fill:#dab567"/><path d="M25.19,245.21c-1.79,3.23-5.2,4.23-8.21,5.85-.19,1.69,2,.9,2.18,2.09a22.62,22.62,0,0,1-9,2.1c-.83-1.42-.49-3,.92-3.26C16.4,250.87,20,246.41,25.19,245.21Z" style="fill:#edcf86"/><path d="M144.17,238.25c.7-1.21,1.9-1,3-1,1.42-1.47,3.28-1.36,5.09-1.43,2.37.15,4.88-.38,6.91,1.43l1,1.06A33.68,33.68,0,0,1,144.17,238.25Z" style="fill:#b99247"/><path d="M784.17,176.22h17q0,.49,0,1C795.52,176.76,789.74,178.28,784.17,176.22Z" style="fill:#f9ebbc"/><path d="M1006.18,227.22c2.52-2,5.44-.63,8.16-1C1011.76,227.75,1008.93,227.13,1006.18,227.22Z" style="fill:#e9ca79"/><path d="M409.21,168.15c2.13-1.83,4.68-.59,7-.93C414.08,169,411.55,167.84,409.21,168.15Z" style="fill:#fdf0c6"/><path d="M690.14,169.23c2.34.34,4.89-.91,7,.94C694.82,169.85,692.28,171,690.14,169.23Z" style="fill:#fbeec4"/><path d="M381.22,170.14c2.14-1.81,4.68-.58,7-.92C386.09,171,383.56,169.87,381.22,170.14Z" style="fill:#fbeec4"/><path d="M892.44,224.32a2.55,2.55,0,0,1-.16,3.85,3.4,3.4,0,0,1-.91-2.79Z" style="fill:#a07d3a"/><path d="M999.22,228.1c1.81-1.63,4-.63,6-.85C1003.39,228.66,1001.27,228.11,999.22,228.1Z" style="fill:#e6c675"/><path d="M992.23,229.07c1.51-1.48,3.37-.68,5.09-.81C995.77,229.45,994,229.08,992.23,229.07Z" style="fill:#e6c675"/><path d="M121,234.28c1.78.13,3.75-.78,5.22,1C124.41,235.28,122.57,235.47,121,234.28Z" style="fill:#d8b366"/><path d="M980,183.17a3.52,3.52,0,0,0,2.28-1.91c2.7.81,1.5,2.92,1.12,4.31-1.62,5.83-2,11.9-3.52,17.74-2.05,3.87-5.43,5.35-9.64,5.33-3-1.49-3.25-3.93-2.4-6.77a23.56,23.56,0,0,0,1-10.33c0-2.43,2.24-2.53,3.72-3.34a12.21,12.21,0,0,0,4.31-3.17,7.91,7.91,0,0,1,1.85-1.91A1.25,1.25,0,0,1,980,183.17Z" style="fill:#e8c978"/><path d="M979.19,203.21c0-5.46,1.43-10.69,2.45-16,.37-1.94,2-3.82.61-6,1.31-7.13,2.65-14.26,3.92-21.39.18-1,.11-2,1-2.69,0,.5-.13,1.24.14,1.45,1.63,1.29.83-.63.88-.85,1.71-6.84,3.35-13.71,5-20.57l.79-.26a2.41,2.41,0,0,1,1,1.26c.53,4.1-1.43,7.77-2.09,11.66-2.57,15-6.3,29.83-9.33,44.77a48,48,0,0,0-1,7.39C981.81,203.37,980.84,204.27,979.19,203.21Z" style="fill:#eacf81"/><path d="M954.18,168.25h6c0,1.34-1.37,2.11-.53,4.06,2.06,4.74,1.63,10,1.69,15.14a4.48,4.48,0,0,1-2.54,4.48c-3.22.82-4.48-.91-5.07-3.75-1.24-6-1.2-12.08-2.07-18.09C951.8,168.53,953.41,169,954.18,168.25Z" style="fill:#d7b669"/><path d="M954.18,168.25a2.1,2.1,0,0,1-2,1c.24,1-1.91-.18-1.37,2.31,1.49,6.86,3.63,13.93,1.35,21.14a5.66,5.66,0,0,1-5.49.17,54.61,54.61,0,0,0-.5-12.83,46.81,46.81,0,0,0-2.95-10.7l6-1.12Z" style="fill:#e0bf71"/><path d="M959.19,191.2a30.3,30.3,0,0,0-1-19.08c-1.21-3.38,1-2.77,1.94-3.86,2.39.2,4.92-.78,7.13.88a4.17,4.17,0,0,1-2.43,1.39c-2,.92-.91,2.5-.84,3.89.26,5.43,2.46,10.8.54,16.3-1,1.6-2.47,1.66-4.09,1.37A2.61,2.61,0,0,1,959.19,191.2Z" style="fill:#d1af64"/><path d="M964.2,169.21l3.1-.07c1.43,0,2.91-.19,4.11.89,2.45,5.7,3.72,11.54,2.14,17.73a2.41,2.41,0,0,1-2.71,1c-2.89-2.17-2.49-5.49-3-8.5s.08-6.63-2.76-9.06C964.44,170.67,963.92,170.11,964.2,169.21Z" style="fill:#c29f59"/><path d="M973.29,187.26,971.41,170c1.33.16,2.78,0,3.79,1.17.65,5.17,3.23,10.29.39,15.55C975,187.58,974.27,188,973.29,187.26Z" style="fill:#bd9a55"/><path d="M975.18,186.21c1.07-4.28.29-8.45-.82-12.57-.29-1.1-1.22-2.22.84-2.43l2,1c2.72,3.29,2.38,7.11,1.88,11l-.93,1.77C977.35,185.77,976.59,186.73,975.18,186.21Z" style="fill:#b89653"/><path d="M979.1,183.14c-1.64-3.48-.54-7.43-1.88-11l2.07,1.62c1,2,2,4,1.85,6.37l-1.16,3-.43,0Z" style="fill:#b2904d"/><path d="M981.13,180.18c-1.36-1.9-1.43-4.18-1.85-6.36C981.34,175.52,982.75,177.41,981.13,180.18Z" style="fill:#aa8642"/><path d="M82.19,138.21q0-3,0-6c3.62,5.58,2.24,12.54,5,18.35.28.57.63,1.11,1,1.66,2.37,2,.88,5,2.13,7.28.06.1-.66,2.29.89.69,2.12,4.44,1.83,9.4,3,14,.75,2.32,1.76,4.54,2.54,6.85a6.83,6.83,0,0,1,.22,1.51,82.38,82.38,0,0,0,1.88,12.15c.7,2.87,1.27,5.84-.94,8.44a2.74,2.74,0,0,1-1.48.64,3.09,3.09,0,0,1-2.72-1.63,4.42,4.42,0,0,1-.33-1.61c.23-7.07-2.51-13.61-3.67-20.43-1.77-10.42-4.81-20.58-6.27-31.07-.27-2-1.25-3.76-1.7-5.71S80.72,139.82,82.19,138.21Z" style="fill:#ecd187"/><path d="M110.08,169.13c4.61-1.88,9.41-.61,14.11-.87.85,1,2.62-.21,3.25,1.35-2.53,5.15-1.64,10.93-2.91,16.33-.66,2.83-1,5.54-4.05,6.86-1.26.35-2.47.44-3.38-.76-3.63-4.72-1.52-10-1.5-15.09,0-2.12,2-4.32-.16-6.36-1.16-.15-2.33-.07-3.48-.29A2.92,2.92,0,0,1,110.08,169.13Z" style="fill:#d5b468"/><path d="M135.14,169.28l3,.93c-1.86,7.33-3.06,14.72-2.1,22.32a4.41,4.41,0,0,1-4.17.34c-2.31-1-2.93-3-3.1-5.27-.37-4.86.84-9.58,1.34-14.36C130.46,170.32,132.83,169.8,135.14,169.28Z" style="fill:#e3c373"/><path d="M135.14,169.28a6.16,6.16,0,0,0-4,6.53c.22,3.92-1.35,7.7-1,11.7a6.28,6.28,0,0,0,2.09,4.69,2.9,2.9,0,0,1-3,.69c-2.86-1-3.31-3.39-3.3-5.95,0-5.94,0-11.89,1.27-17.74-1.09,0-2.25.17-3-1C127.93,167.67,131.48,169,135.14,169.28Z" style="fill:#e0bf70"/><path d="M136.18,192.2a7,7,0,0,1-1.34-1.44c-1.85-3.7.41-17.36,3.34-20.55l1-.06c1.06.16,2.27-.08,3,1.07a25.7,25.7,0,0,0-2.8,12.23c0,3.18.08,6.13,1.95,8.81a3.91,3.91,0,0,1-3.78.85A2.8,2.8,0,0,1,136.18,192.2Z" style="fill:#e6c777"/><path d="M103,171.1a3.74,3.74,0,0,1,3-1c1.67-.75,2.62-.18,2.4,1.62-.66,5.47-.43,11-1.2,16.45a2.55,2.55,0,0,1-1.32.58,8.37,8.37,0,0,1-3.87-1.58,2.78,2.78,0,0,1-1.17-1.56,16.54,16.54,0,0,1,.06-3.22C101.27,178.58,101.63,174.75,103,171.1Z" style="fill:#bc9a55"/><path d="M106.18,188.21c.28-5.73-.07-11.51,1.3-17.17,0-.18-1-.61-1.48-.93,1.17-1.11,2.66-.95,4.09-1l2.09.1c-.52,4.91-1.82,9.69-2.19,14.64a6.2,6.2,0,0,0,1.43,4.45c-.13,1.37-1.15,1.68-2.25,1.91C107.81,190.09,106.19,190.34,106.18,188.21Z" style="fill:#c2a05a"/><path d="M103,171.1l.48.09c-.91,4,.35,8.37-2.27,12-2.93.28-3.6-1.62-3.6-3.94a17.27,17.27,0,0,1,1.5-6.13A6.42,6.42,0,0,1,103,171.1Z" style="fill:#b69351"/><path d="M99.08,173.14c1,1.7.32,3.59-.16,5-.91,2.7.27,3.92,2.27,5,.09.67,1.11,1.34,0,2-1.47.72-2.31-.55-3.39-1.07-.68-.52-1.36-1.05-1.31-2a1.75,1.75,0,0,0-.17-.75c-.91-1.69-1.43-3.39-.19-5.16A7.56,7.56,0,0,1,99.08,173.14Z" style="fill:#af8c4b"/><path d="M91.21,160.18v3.75c-2.4-4.2-1.71-8.21-3-11.71.15-1.38-.46-2.94,1-4Z" style="fill:#eacb7a"/><path d="M96.12,176.18q.09,2.58.19,5.16c-2.38-1.88-2.13-4.53-2.08-7.12Z" style="fill:#f4dea6"/><path d="M141.18,192.19c-2.74-1.06-4.55-2.21-3.19-5.91.85-2.33.21-5.23.19-7.87,0-3.16,1-5.71,4-7.18l1,0a3.63,3.63,0,0,1,2.09,4.09c-.89,5.49-.94,11.12-2.58,16.49A1.1,1.1,0,0,1,141.18,192.19Z" style="fill:#e9ca79"/><path d="M142.18,192.2c-.3-5.16.73-10.18,1.65-15.2a7.88,7.88,0,0,0-.64-5.74l6,1c-1.56,6.53-1.53,13.35-3.6,19.8a2.32,2.32,0,0,1-2,.88A2.22,2.22,0,0,1,142.18,192.2Z" style="fill:#eace81"/><path d="M145.18,192.2c.85-6.75-.06-13.85,4-20l1,0,3,1A20.92,20.92,0,0,0,150,186.53a9.91,9.91,0,0,1-1.21,5.21C147.71,193,146.53,193.25,145.18,192.2Z" style="fill:#edd288"/><path d="M934.19,171.24l1,0c4.81.08,6.37,2.62,6.17,7.25a113,113,0,0,0,.55,11.92,3.53,3.53,0,0,1-.62,1.49,3.88,3.88,0,0,1-1.26,1,8,8,0,0,1-4.68.25,3.38,3.38,0,0,1-1.31-.72c-.67-6-1.54-12-2.08-18.05C931.78,172.32,932.73,171.76,934.19,171.24Z" style="fill:#e9cb7a"/><path d="M934.19,192.2l1,0a1,1,0,0,1-.26,1.44,7.55,7.55,0,0,1-4.05.87c-2.24,0-4.52.21-6.7-.6-4.72-2-5.26-6.26-5.84-10.53-.41-3.06-1.19-6.12-.14-9.2l5-1,1,0c2.25,3.65,2,7.88,2.68,11.88.55,3.11,1.42,5.83,5.29,5.93A4,4,0,0,1,934.19,192.2Z" style="fill:#f0d999"/><path d="M940.19,192.2l1-1a4,4,0,0,0,1.81-3.86c-.65-4.11-1.35-8.23-.91-12.39.26-2.48-3.17-2.42-2.88-4.74l4-.94a5.72,5.72,0,0,1,3.18,4.38c.84,5,1.26,10.1,2.25,15.05.55,2.77-1.9,2.19-2.47,3.48A4.23,4.23,0,0,1,940.19,192.2Z" style="fill:#e3c374"/><path d="M932.19,192.21c-3.94.34-6-1.1-6.37-5.4-.39-4.53-1.67-9-1.63-13.6l4-1a6.13,6.13,0,0,1,2.27,4.77C930.69,182.13,932.47,187,932.19,192.21Z" style="fill:#eed58f"/><path d="M932.19,192.21c-2.65-4-2.19-8.79-2.88-13.23-.35-2.24-.59-4.5-1.1-6.72l6-1c-1.55,3.64-1,7.38,0,11a18.9,18.9,0,0,1,.05,10Z" style="fill:#ecd186"/><path d="M939.2,170.22c3.59,1.21,5.08,3.47,4.1,7.35-.88,3.48.49,6.92,1.16,10.22.74,3.65-.92,3.5-3.27,3.41-1.93-4.4-1.55-9.33-1.28-13.66.28-4.56-1.93-5.15-4.71-6.32A6.84,6.84,0,0,0,939.2,170.22Z" style="fill:#e6c776"/><path d="M66.09,169.25l1.07,1c1.25,6.27.41,12.61.5,18.92.09,6.48.33,13,0,19.46-4,3.07-6.52.19-9.1-2.37-3.25-11-1.67-22.16-1.55-33.27.06-4.91,4.3-3.46,7.21-3.79Z" style="fill:#d5b367"/><path d="M64.18,169.22c-6.24.5-6.29,4.61-6.09,9.52.38,9.15-.3,18.35,1.09,27.46-2.21,1-3.47-.55-4.84-1.81a7.87,7.87,0,0,1-2.72-6.13c.28-7.62,0-15.26.17-22.88,0-2.2-.4-4.82,2.48-5.71-1.7.2-3.67,1.39-5.31-.58l1.22-1C54.84,168.58,59.65,167.15,64.18,169.22Z" style="fill:#d1af64"/><path d="M49,169.1h5c-1.44,5.58-.57,10.95-.76,16.26-.16,4.63.52,9.41-.41,13.86-.63,3,3.5,2.53,2.42,5-.9.64-1.72,0-2.57-.14-1.85-.42-2.83-2.19-4.5-2.9l-1-.91c-1.73-2.76-2-5.63-1.67-8.93.62-7,.85-14.15-.47-21.19a8.49,8.49,0,0,1,.34-.84Z" style="fill:#cdab61"/><path d="M1064.19,24.21c.07,4.78-1.48,9.27-2.45,13.86-.43,2-1.48,4-.55,6.14v1c-1.82,8-3.58,15.95-5,24v1c-1.12,2.2-.46,4.92-2,7-1.67,1.4-.76,3.32-1,5-.63,3.67-.93,7.41-2,11h0c-1.57,2.8-.71,6.14-2,9a16,16,0,0,0-2,9c-2.09,6.52-2.67,13.33-4,20-.59,8.26-2.85,16.14-5.24,24-1.47,4.87-2,10-2.94,15.06a2.15,2.15,0,0,1-2.7.26,1,1,0,0,1-.36-.83q0-.47.14-.47c3.29-.53-.27-1.38.1-2,2-9,4.41-17.84,5.84-26.88.9-5.66,2.36-11.21,3.5-16.78,3.39-16.5,7.41-32.88,10.52-49.45,2.53-13.48,6.57-26.64,8.29-40.29A23.53,23.53,0,0,1,1064.19,24.21Z" style="fill:#faecbf"/><path d="M1013.22,169.28c4.54-1.86,9.31-.81,14-1.17l2.14,1c-1,1.3-2.48,1.3-3.91,1.24-1.1,0-1.37.4-1.12,1.39,0,10.85,1.87,21.75-1.37,32.43-2,2.18-4.24,3.65-7.35,3.28a1.63,1.63,0,0,1-.58-1.78c3.23-9.6,1-19.52,1.81-29.24C1017.11,173,1014,171.85,1013.22,169.28Z" style="fill:#d3b165"/><path d="M1023.19,170.21c1.73-2.17,4.16-.38,6.15-1.07l2.75.12q.19.41.34.83c2,9.22,1.38,18.49.49,27.77a2.53,2.53,0,0,1-1.43,1.83c-2,1-3.11,4.24-6.22,2.52.62-8.26.47-16.53.47-24.81C1025.74,174.69,1025.69,172,1023.19,170.21Z" style="fill:#cdaa61"/><path d="M55.19,47.21h1c2.37,2.68,2.48,6.1,2.95,9.37.23,1.58-.07,3.26,1.05,4.63q0,.5,0,1c1.13,3.63,1.59,7.44,3,11,0,3.16-.21,6.34,2,9a127.07,127.07,0,0,0,5,25l1,5c1.19,7.44,2.26,14.91,5,22v1c-.24,3.51.93,6.75,2,10l1,5c-.56,1.56.62,2.68,1,4a17.1,17.1,0,0,0,1.24,6.7c2.87,8.2,4.38,16.76,5.69,25.33.31,2,1.22,3.73,1.77,5.6.36,1.21,1.26,3.35-1.72,2.37-3.18-.2-4.86-1.58-4-5,2.88-5.58-.2-10.72-1.53-15.79-5-19.28-8.13-39-12.49-58.38-3.58-16-7.37-31.88-10.33-47.95C57.61,60.47,54.17,54.22,55.19,47.21Z" style="fill:#f2da9b"/><path d="M83.18,189.21c.28,2.51,2.13,3.75,4,5q0,1.09,0,2.18a1.67,1.67,0,0,1-1.37.07c-3.54-2.27-5.42-5.87-7.5-9.33-.86-2.88-4-5.19-2.21-8.75l1.1-1.17C79,181.32,79.39,186.1,83.18,189.21Z" style="fill:#f8e6b3"/><path d="M1.19,85.21q0-9,0-18A125.56,125.56,0,0,1,6.58,94.4c.33,3.72,2,7.23,2.9,10.91,2.25,9.46,2.86,19.16,5.08,28.59,3,12.59,5.07,25.37,7.73,38,1.7,8.05,3,16.3,4.34,24.49,1.22,7.67,3.51,15.18,4.79,22.89.23,1.4-.22,2.61-.24,3.91h-6c0-9.53-2.64-18.68-4.29-28C18.56,182,16,168.84,13.39,155.67c-2.91-14.82-5.67-29.67-9-44.4-1.58-7-1.9-14.07-3.18-21.06Z" style="fill:#f2dda0"/><path d="M1066.18,74.21c-2.48,13.62-4.92,27.24-7.45,40.84-4,21.39-8.14,42.74-11.9,64.16-.69,3.94.42,8.25-3.8,10.86-.76-1.15-.27-2.26.1-3.38,1.25-2.37.59-4.86.44-7.31a2.12,2.12,0,0,1,.67-1.18c.22-.41.71-1.11.62-1.19-4.24-4-2.24-8.43-1.15-12.93,3.58-14.75,6.8-29.58,9.54-44.51,1.45-7.9,3.54-15.68,5.46-23.49,1.13-4.63.46-9.71,3.48-13.86C1063.24,79.4,1064.05,76.48,1066.18,74.21Z" style="fill:#f5e3ac"/><path d="M1032.27,198.24c0-7.68-.32-15.37.13-23,.1-1.72-2.75-3.56,0-5.14l2.58.22,2,1a6.89,6.89,0,0,1,.28.86,7.67,7.67,0,0,1,1.47,5.93c-.9,5.59,1,11.46-1.73,16.87a4,4,0,0,1-2.22,2.63C1033.9,197.67,1033.3,198.78,1032.27,198.24Z" style="fill:#c8a65e"/><path d="M1036.34,195.27c1.42-7.66.69-15.4.92-23.1a16.21,16.21,0,0,1,7,6l-.06,1c-.26,2.63.15,5.27-.18,7.9l-1,3,.1.07a9.22,9.22,0,0,1-4.16,4,2.25,2.25,0,0,0-.83.2C1037.61,194.82,1037.31,195.71,1036.34,195.27Z" style="fill:#c5a35c"/><path d="M33,186.16c-3.89-2.63-1.9-6.95-2.63-10.37-3.56-16.64-6.47-33.42-9.55-50.16-2.6-14.13-5.12-28.28-7.67-42.42,4.66,5.11,3.77,12.06,5.92,18,2.86,7.87,2.81,16.38,5.49,24.4,2.11,6.33,2.37,13.27,3.67,19.89.47,2.37.87,4.94,2.91,6.7,1.22,4.74,2.7,9.37,3.53,14.26a49.58,49.58,0,0,1,.28,9.72c1,1.43-.4,2.46-.62,3.69-1,1.85.05,4-.81,5.87Z" style="fill:#f5e2ab"/><path d="M45,170.13c2.89.63,2.09,3.19,2.05,4.81-.16,6.43,1.12,13-.8,19.28-.7,2.3,2.44,3.77.89,6l-2-1.07-2.23-2c-1-.62-2.32-.81-2.66-2.2-1.14-2.14-.9-4.38-.68-6.7A50.32,50.32,0,0,0,39,173.12q.11-.44.24-.88a7.69,7.69,0,0,0,3.95-2Z" style="fill:#c8a65e"/><path d="M39,173.12c2,.87,2.28,2.62,2.14,4.51-.31,4.39.9,8.91-.8,13.15-.74,1.85,1.91,2.73.81,4.42-1.52.87-2-1.13-3.15-1.17a3.2,3.2,0,0,0-.65.06L33,186.16l.29,0c.78-2.28-.13-4.58.06-6.87L35,176.19Z" style="fill:#c4a25b"/><path d="M1013.22,169.28c4.52.61,5.39,3.36,5.06,7.52-.4,4.93-.07,9.92-.1,14.88,0,5.26.55,10.6-1.95,15.56.22,1.42-.87,1.83-1.82,2.35-2.24.76-4.47,2.8-6.78.11,0-12.47.33-25-.42-37.42l4.15-3Z" style="fill:#d6b569"/><path d="M1007.22,172.28c2.19,1.28,1.37,3.68,1.46,5.33.58,10.88,1.42,21.8-.48,32.66-.34,2.07-1.86,1.68-3.26,1.57-3-2-2-4.92-1.68-7.61a65,65,0,0,0-1.9-24.34c-.33-2.27,1.08-3.55,2.68-4.72A7.69,7.69,0,0,1,1007.22,172.28Z" style="fill:#d9b96b"/><path d="M1004,175.16c-.44,1.43-2,2.35-1.87,4-.75.56-.2,1.81-1.18,2.25-.74-.11-1.34-.31-.82-1.24-.24-2.62,1.48-4.26,3-6Z" style="fill:#f7e5b3"/><path d="M67.16,209.34c-1.35-2.48-1-5.18-1-7.82,0-8.48,0-17,0-25.45,0-2-.15-4,1-5.81l1,0,3,2,3,4c.39.57.14,1.13.13,1.73,0,1.8-1.6-2-1.33.46,1.19,10.92.81,21.85.14,32.78a2.28,2.28,0,0,1-1.5.58C69.86,211.46,67.66,212,67.16,209.34Z" style="fill:#d8b76a"/><path d="M1000.18,180.2l.89,1c.95,2.86-1.36,4.75-2.11,7.1a58.57,58.57,0,0,1-6.06,8.32c-1.72,1.47-3,3.55-5.4,4.09a2.25,2.25,0,0,1-1.28-.46,1.47,1.47,0,0,1-.17-1.31,2.11,2.11,0,0,1,1.13-.74,6.4,6.4,0,0,0,3-3c2.17-1,3-3,4-5,1.31-1.48,2.78-2.87,3-5C999.09,184.08,998.6,181.52,1000.18,180.2Z" style="fill:#f7e4b1"/><path d="M72.16,211.22q0-6.38,0-12.76c0-5.92.18-11.85-.09-17.76-.1-2.11.86-3.23,2.08-4.47l1.91,2.15c0,3.31,2.61,5.67,3.13,8.79-.64,8.58-1.81,17.17,1,25.63.13.4-.52.79-1,1C76.63,213.58,73.65,214.41,72.16,211.22Z" style="fill:#dcbb6d"/><path d="M1056.19,69.21c.25-8.3,1.51-16.38,5-24,.24.61.82,1.34.66,1.82C1059.39,54.28,1059.58,62.2,1056.19,69.21Z" style="fill:#faecbe"/><path d="M1043.19,131.21c0-6.93.65-13.74,4-20C1046.46,118,1046,124.83,1043.19,131.21Z" style="fill:#faecbe"/><path d="M1051.19,93.21c-.06-3.8-.12-7.6,2-11C1054.61,86.25,1053.44,89.83,1051.19,93.21Z" style="fill:#faecbe"/><path d="M1049.19,102.21c.64-3-1.63-6.66,2-9C1052,96.55,1050.93,99.45,1049.19,102.21Z" style="fill:#faecbe"/><path d="M1054.19,77.21a10.09,10.09,0,0,1,2-7C1055.83,72.63,1057.31,75.58,1054.19,77.21Z" style="fill:#faecbe"/><path d="M1047.19,223.21c.55-10,3.37-19.51,5.31-29.22.89-4.47,2.38-8.88,2.63-13.45.44-8.21,3.19-16,4.48-24,2-12.31,4.77-24.49,7.15-36.72q2.88-14.76,5.52-29.58a61.68,61.68,0,0,1,2.9-12c1.13,16.2-1.92,31.88-5.59,47.55-2.29,9.78-3.31,19.85-5.5,29.66-2.3,10.28-4.13,20.64-6.1,31-2.34,12.26-5.38,24.38-6.81,36.81Z" style="fill:#f2dda0"/><path d="M1075.19,127.21c1.13,14.31-3,27.89-5.71,41.69s-4.76,27.44-7.4,41.12c-.7,3.64-2.68,6.92-2.14,10.95.27,2-2,2.27-3.75,2.25-.77-2.64-.23-5.28.47-7.76,3.47-12.23,4.69-24.89,7.44-37.26,2.43-10.93,4.57-21.92,6.5-32.95C1071.68,139.1,1072.55,132.94,1075.19,127.21Z" style="fill:#f5e2ab"/><path d="M994.19,132.21v-2c1.18-.73-.43-3.28,2.06-3.16a2.84,2.84,0,0,1,.8,1.29c-.6,3.07.92,6.83-2.86,8.87h0A5.83,5.83,0,0,1,994.19,132.21Z" style="fill:#eacf82"/><path d="M998.19,112.21l-1,9a.61.61,0,0,1-1,0A16,16,0,0,1,998.19,112.21Z" style="fill:#eace81"/><path d="M996.19,127.21l-2,3a15.1,15.1,0,0,1,2-8A3.42,3.42,0,0,1,996.19,127.21Z" style="fill:#eace81"/><path d="M996.19,127.21v-6h1c1.39,2.29,2.49,4.53-1,6Z" style="fill:#eacf82"/><path d="M994.19,132.21v5h-1C993.43,135.52,992.52,133.61,994.19,132.21Z" style="fill:#eace81"/><path d="M1000.19,103.21c-.24,1.68.67,3.6-1,5C999.43,106.52,998.52,104.61,1000.19,103.21Z" style="fill:#eace81"/><path d="M1001.19,116.21h1q.46.33.3.67t-.3.33c-.39,8.63-2.72,16.89-4.57,25.26-2,8.84-3.86,17.71-5.3,26.64-.5,3.12-2.84,5.76-2.13,9.1a109.23,109.23,0,0,0-3,14c-1,2.23-.56,4.66-1,7l0,0a1.63,1.63,0,0,1-1.57.33c-2.1-1.5-1.31-3.54-.95-5.45,3.62-18.8,7.65-37.52,11.9-56.18,1.06-4.64,2-9.33,2.69-14.05C998.65,121.12,998.83,118.22,1001.19,116.21Z" style="fill:#eed48d"/><path d="M987.19,192.21c-1.6-5.22,1.36-9.47,3-14C989.57,183,990,187.92,987.19,192.21Z" style="fill:#efd591"/><path d="M1002.19,117.21v-1c.44-2.65-1-5.54,1-8q.5-.73,1,0h0C1003.54,111.21,1005.81,114.87,1002.19,117.21Z" style="fill:#eed48d"/><path d="M986.16,199.16c-1.22-2.55-.23-4.77,1-7q0,3,0,6Z" style="fill:#efd591"/><path d="M82.19,138.21c2.45,11.54,5,23,7.3,34.62,1.58,8.09,3.06,16.19,5.48,24.08a5.49,5.49,0,0,1-.77,4.28c-2.3.32-3.24-.75-3-3,1.82-3.09,0-6.06-.55-9-2-10.86-4.46-21.64-6.77-32.42-3-13.82-5.89-27.67-9.09-41.46-4-17.39-6.84-35-11.38-52.33-.75-2.85-.81-5.89-1.19-8.84l-1-12c2,3.39,1.51,7.34,2.49,11,2.78,10.3,4.62,20.82,7,31.2,2.54,11,4.5,22.19,6.71,33.29C78.78,124.51,79.5,131.62,82.19,138.21Z" style="fill:#eed58e"/><path d="M86.14,196.29l1,.1a4.89,4.89,0,0,0,.08.84,6.12,6.12,0,0,1,4.61,4c.13,5-1.06,10.27,2.57,14.69a1.81,1.81,0,0,1-1.05,1c-3.69-.07-7.4-.07-10.57-2.4-.37-4.72.06-9.44.16-14.16C83,198.4,83.48,196.42,86.14,196.29Z" style="fill:#e3c273"/><path d="M70.19,107.21c-1.09-.15-1.89-.63-1.94-1.85-.24-6.15-2.17-12-3.58-17.88-.48-2,.46-3.52.52-5.28C67.5,90.41,68.73,98.83,70.19,107.21Z" style="fill:#f2da9b"/><path d="M60.19,61.21c-2.3-1-2-3.1-2-5a23.89,23.89,0,0,0-2-9c.49-3.09-.77-6-1-9a4.6,4.6,0,0,1,1.89,3.32C57.8,48.14,60.46,54.44,60.19,61.21Z" style="fill:#f2da9a"/><path d="M76.19,134.21c-1.34-.61-1.77-1.72-2.06-3.11-1.17-5.6-2.48-11.17-3.75-16.75a1.93,1.93,0,0,1,.81-2.14C73.62,119.37,74.7,126.83,76.19,134.21Z" style="fill:#f2da9b"/><path d="M63.19,73.21a14.3,14.3,0,0,1-3-11C62.86,65.42,63.14,69.28,63.19,73.21Z" style="fill:#f2da9a"/><path d="M78.19,145.21c-2.87-2.89-2.86-6.36-2-10C76.84,138.54,78.73,141.63,78.19,145.21Z" style="fill:#f2da9b"/><path d="M91.21,201.18l-4-4c1.73-1.34,2.66.5,3.92,1a6.33,6.33,0,0,0,3,3l.08,1.08C92.81,203.16,91.87,202.55,91.21,201.18Z" style="fill:#f7e2ac"/><path d="M52.19,21.21c-2.3-1.87-2-4.47-2-7A10.09,10.09,0,0,1,52.19,21.21Z" style="fill:#f2da9a"/><path d="M55.19,34.21c-1.74-1.64-3-3.43-2-6C55.13,29.78,55.27,32,55.19,34.21Z" style="fill:#f2da9a"/><path d="M80.19,154.21c-1-1.17-2.69-2.16-1-4A6.72,6.72,0,0,1,80.19,154.21Z" style="fill:#f2da9b"/><path d="M1.19,90.21c2.27,5.7,2.62,11.84,4,17.73,3.26,13.46,5.61,27.12,8.26,40.67,2.43,12.44,5.55,24.82,6.76,37.52.55,5.74,2.48,11.27,3.62,16.94C24.94,208.35,25,213.85,27,219c.76,2-.66,3.06-1.78,4.25h-3c-.43-7.26-2.55-14.25-3.6-21.35-1.46-9.8-3.64-19.43-5.47-29.13C9.48,153.47,6,134.18,1.77,115,0,106.94,1.46,98.49,1.19,90.21Z" style="fill:#f3dfa5"/><path d="M1.19,152.21q0-9,0-18c3.45,8.47,3.71,17.64,5.78,26.4,3,12.52,4,25.45,7.46,37.78,2.08,7.32,1.5,15,4.33,22.11.68,1.72,1.33,3,3.44,2.72v1h0c-1.5,1.16-3.5-.21-5,1h-3c-1-7.7-2.51-15.34-4.05-22.92C7,187.07,4,171.89,1.77,156.54c-.11-.8.08-1.67-.58-2.33Z" style="fill:#f7e6b4"/><path d="M80.19,121.21a31.24,31.24,0,0,1-3-14C78.76,111.75,80.19,116.33,80.19,121.21Z" style="fill:#ecd187"/><path d="M82.19,131.21a21.89,21.89,0,0,1-2-9C82.4,124.86,82.22,128.05,82.19,131.21Z" style="fill:#ecd187"/><path d="M1001.19,116.21c-2.3,10.48-4.63,20.95-6.9,31.43-2.83,13-5.75,26.06-8.34,39.14-.8,4-2.33,8.18-.78,12.42.25,2.24-.71,3.27-3,3-2-3.84.17-7.36.9-11q5.49-27,11.11-54c1.49-3.17,1.65-6.6,2-10,1.81-1.75.68-4,1-6l3-6Z" style="fill:#edd288"/><path d="M1004.19,108.21h-1c-.08-2.85.06-5.65,2-8Z" style="fill:#eed48d"/><path d="M1007.19,91.21l-1,5C1004.1,94.06,1006,92.71,1007.19,91.21Z" style="fill:#eed48d"/><path d="M13.18,225.2h-1a2.06,2.06,0,0,0-2-1c0-7.47-3.57-14.45-3-22,2.08-.15,2.34,1.59,2.7,2.9,1.64,6,2.16,12.27,3.88,18.27A2.13,2.13,0,0,1,13.18,225.2Z" style="fill:#faebbe"/><path d="M13.18,225.2c-2.14-5.85-2.92-12-4-18.07-.32-1.74-.59-3.56-2-4.92.12-8.06-1.69-15.83-3.78-23.52C1.21,170.64,1,162.45,1.19,154.21c3.17,4.56,2.73,10.06,3.79,15.13,3.54,17.12,6.79,34.3,10.16,51.45.32,1.61.76,3.23-.94,4.4Z" style="fill:#f9e9b9"/><path d="M1052.21,233.26c6,7.37,14,11.48,23,13.95-1.73,4-4,1.2-6,.39a66.28,66.28,0,0,1-21-13.41A6.53,6.53,0,0,1,1052.21,233.26Z" style="fill:#e0c179"/><path d="M1075.28,240c-3.28,1.67-6,.06-8.39-1.81a22.54,22.54,0,0,0-6.85-3.8l2.27-.29C1067.29,234.7,1071.89,236,1075.28,240Z" style="fill:#d2b16c"/><path d="M9.2,235.28c2.27-.59,4.52-1.33,6.92-1.1,1,.42,2.34-.8,3,.8l-.91.24c-4.54.79-9,1.8-12.87,4.49-1,.68-1.93,2.2-3.22.35C3.74,237.38,7.15,237.34,9.2,235.28Z" style="fill:#d1b06a"/><path d="M17.19,225.19c1.41-1.65,3.32-.75,5-1C20.78,225.86,18.88,225,17.19,225.19Z" style="fill:#f7e3ad"/><path d="M1039,194.17l4.16-4,0,2C1041.77,192.82,1040.82,194.45,1039,194.17Z" style="fill:#f6e3ae"/><path d="M162.2,207.21c-1.73,1.4-3.86,1.68-5.93,2.15a2.31,2.31,0,0,1-2.29.39c-2-4.52-2-9.47-3-14.21-.47-2.25,1.8-2.28,3.5-2.25,4.76.26,6.17,3.58,7,7.55C162,202.95,161.87,205.1,162.2,207.21Z" style="fill:#cda75e"/><path d="M155.19,218.2a8.25,8.25,0,0,0-5,1c-1.59,1.34-3.42,1-5.24.78-2.64-1.51-.46-5.06-2.83-6.7a1.51,1.51,0,0,1,.1-1.37c1.24-1,2.77-1.11,4.22-1.48a7.29,7.29,0,0,1,2.37,0,10.54,10.54,0,0,0,2.39.32C156.72,211.07,157.58,212.68,155.19,218.2Z" style="fill:#f2dda1"/><path d="M167.19,194l2,.12c2.81-.5,5.17,0,6.42,2.91.3,3.33-1.15,5.43-4.39,6.28l-2.86,1c-3-.32-1.78-2.9-2.16-4.41-.54-2.12-1.2-3.61-3.66-3.54-1.17-.4-2.68-.42-2.5-2.29a2.39,2.39,0,0,1,2.26-.5C163.93,193.94,165.61,193.4,167.19,194Z" style="fill:#be9954"/><path d="M155.19,218.2c2.11-6.8-3.61-5.68-7-6.92a2.68,2.68,0,0,1,1.63-1.1c1.44-.57,3-.47,4.5-.87l2,0c1.23,1.73,4.66-.3,5,3.5C161.82,218.1,159.17,218.66,155.19,218.2Z" style="fill:#f2dea3"/><path d="M144.18,219.2h6v1c-.56.66-1.52.37-2.13.93h-1.77c-3.63-.43-7.06,1.53-10.71.9-3.4-1.05-7,.48-10.38-.9h-4.93c-1.13-1.32-2.68-.79-4.07-.94,1-3.3,3.95-1.93,6.1-2.47,3-.14,6.08.11,9.12,0C135.68,218.06,140.18,216.54,144.18,219.2Z" style="fill:#f2dea3"/><path d="M160.2,194.23c.72,1.16,1.89.94,3,1,3.46,3.38,2.31,7.18,1,11l-2,1c-3.41-1.57-.79-4.85-2-7.28s-2.14-4.84-5-5.72A3.39,3.39,0,0,1,160.2,194.23Z" style="fill:#c6a159"/><path d="M175.31,197.19a13.79,13.79,0,0,0-6.1-3,5,5,0,0,0,3.07-5.38c-.15-2.15-1-4.61.9-6.57.66,5.06,3.07,9.78,3,15C175.89,197.65,175.6,197.67,175.31,197.19Z" style="fill:#fbecbf"/><path d="M164.19,206.21c-.4-3.66.72-7.46-1-11,2.58-.16,3.93.85,4.07,3.63a34.14,34.14,0,0,0,1.14,5.51A7.1,7.1,0,0,1,164.19,206.21Z" style="fill:#c19c56"/><path d="M159.2,220.29l-2,0a3.76,3.76,0,0,1-4-.17,62.13,62.13,0,0,1,22.94-.06Z" style="fill:#f2dea3"/><path d="M175.31,197.19h.87c-.34,4.87-1.14,5.87-4.93,6.14C173.14,201.65,175.67,200.38,175.31,197.19Z" style="fill:#f7e6b4"/><path d="M153.18,220.1l4,.17c-2.88,1.88-6.07.6-9.11.89l2.12-.93Z" style="fill:#bb9652"/><path d="M918.19,218.21c-2.33-.51-5.55,1.58-6.17-3.24-.8-6.23-.74-6.64,5.54-5.09,1.31.32,2.56.62,3.63-.54a1.76,1.76,0,0,1,2-.55,2.53,2.53,0,0,1,1.36,1.67c-.85,2.68,1.08,6-1.82,8.2C921.2,218.54,919.62,219.12,918.19,218.21Z" style="fill:#f3dfa5"/><path d="M919.11,208.24a7.91,7.91,0,0,1-5.13-1.86c-1.4-4.13.23-7.8,1.76-11.5a4.48,4.48,0,0,1,1.85-1.47c2.12-.61,4.21-.82,6.23.33,1.5,1.9-.35,3.32-.78,4.91-.75,2.77-2.25,5.19-1.21,8.46C922.63,209.59,920.33,208.48,919.11,208.24Z" style="fill:#c8a35a"/><path d="M919.11,208.24c.58-.44,2.48.55,1.83-.87-2.43-5.37.83-9.12,3.24-13.16,1.16-.83,2.45-.41,3.7-.4-.19,5-1.61,9.88-2.48,14.81-.22,1.23-1.37,1.23-2.39.67l-1.83,0Z" style="fill:#cea85f"/><path d="M904.19,183.21l1.74-2.43c.68,4.78-.26,9.68,3.25,13.32-.86,1.73-2.78,1.84-4.17,2.76-1,.68-1.82,1.6-2.8,2.32-2-.15-1-1.72-.88-2.42C902.17,192.22,903.21,187.72,904.19,183.21Z" style="fill:#fbecbf"/><path d="M916.19,195.21,914,206.38a7.78,7.78,0,0,1-4.88-2.11c-1.93-3.39-.25-6,1.89-8.46C912.43,194.17,914.25,193.57,916.19,195.21Z" style="fill:#c19c56"/><path d="M916.19,195.21c-4.93.39-6.75,2.71-7.08,9.05a4.33,4.33,0,0,1-3.11-1.92c-1.22-1.87-3.15-3.52-1.86-6.15,1.4-1.37,3.32-1.49,5-2.09l1.92,0c2-.49,4.07-1,6.08.1Z" style="fill:#bd9853"/><path d="M918.19,218.21h5c3.65-2.22,7.47.17,11.18-.42,4.18-.13,8.37-.06,12.55-.05,1.82.22,3.76-.06,5.31,1.29a1.25,1.25,0,0,1-.4,1.63c-8.31,1.73-16.62.12-24.93,0a2.3,2.3,0,0,1-1.71-.55C923.27,218,920.08,220.46,918.19,218.21Z" style="fill:#f6e2a7"/><path d="M904.14,196.19c.11,2.2,2.18,3.82,1.86,6.15-2.14,0-2.57-2.06-3.8-3.17A2.85,2.85,0,0,1,904.14,196.19Z" style="fill:#b6914d"/><path d="M925.19,220.13a2.22,2.22,0,0,0,.9.17q.54.18.44.5c-.07.24-.15.36-.25.36-1.71-.16-3.59.68-5.06-.87Z" style="fill:#bb9652"/><path d="M122.18,219.2c-2,.34-4.24-.8-6,1h-11q0-.48,0-1a3.94,3.94,0,0,1,2.22-1.8c4.19-.23,3-4.46,4.82-6.48,3.37-.57,6.47.42,9.54,1.59C122.71,214.7,120.52,217.09,122.18,219.2Z" style="fill:#edd288"/><path d="M107.18,218.21a2.17,2.17,0,0,1-2,1c-6.79.68-13.25-1.88-19.95-2-4.3-2.72-10-1.51-14-5q-.52-.31-.35-.63c.11-.21.23-.32.34-.32l1-.06a10.59,10.59,0,0,0,7,2c1.26.63,3-.54,4,1,3.42,2.09,7.23,2,11,2,3.74-1,7.27.74,10.93.83A3.38,3.38,0,0,1,107.18,218.21Z" style="fill:#eed493"/><path d="M62.18,225.2c-1.08-5.74-1.44-11.65-4-17,3.93-.13,7.37,1,10,4,.35,1.47.75,2.93,1,4.42C71,225.21,71,225.21,62.18,225.2Z" style="fill:#e9cb79"/><path d="M68.2,212.2a37,37,0,0,0-10-4l-5-2.95a1.34,1.34,0,0,1-.56-.94,1.22,1.22,0,0,1,.56-.93l2,.85a5.92,5.92,0,0,0,4,2c2.51,1.42,5,2.88,8,3.13a7,7,0,0,0,4,1.94q0,.48,0,1Z" style="fill:#efd89b"/><path d="M1036.34,195.27l1.79-.9c-.27,2.36-1.68,3.54-3.94,3.85q-.45-.3-.3-.59c.1-.2.2-.3.3-.3Z" style="fill:#f3dda6"/><path d="M1034.19,197.33q0,.44,0,.89t0,1l-3,1q-.44-.3-.3-.59t.3-.3l1.07-1.11Z" style="fill:#f1dba4"/><path d="M38,194c1.56-1,2,1.13,3.15,1.17L43,197.15C40.47,197.47,39.12,196,38,194Z" style="fill:#f2dba4"/><path d="M1019.16,208.19c1,3.4-.9,6.49-1.67,9.52a31.1,31.1,0,0,0-1.31,7.5c-2.91-.58-7.08,1.78-8.54-1.85s.67-7.64,2.51-11.16c.52-2.82,3.33-2.23,5-3.34C1016.52,208.78,1017.55,206.78,1019.16,208.19Z" style="fill:#e9ca79"/><path d="M1015.2,209.22c-1.34,1.57-3.88,1.11-5,3l-18,5-5,0a1.24,1.24,0,0,1,.07-1.37c2-1.62,4.59-1.69,6.9-2.47,1.61-.42,3.31-.45,4.89-1a23.75,23.75,0,0,1,6.18-1.14c1.08-.05,2.23.1,3-1,2.28.17,4-1.28,6-1.94A2,2,0,0,1,1015.2,209.22Z" style="fill:#eed595"/><path d="M952.18,219.22h-5a5.15,5.15,0,0,1,.87-5.32c1.38-1,3-.94,4.6-1.15,2.51-.52,5-1.42,7.6-.72,1.26,2.46,1.74,5.89,5.9,4.87a23.88,23.88,0,0,1,4.52.27,3.8,3.8,0,0,1,1.41.67,1,1,0,0,1,.1,1.4q0,.48,0,1l-5,0c-2.93-1.14-5.85,0-8.77,0C956.29,220.15,954.05,220.77,952.18,219.22Z" style="fill:#eed48e"/><path d="M987.19,216.22q0,.51,0,1a22.4,22.4,0,0,1-10,1.94,1.78,1.78,0,0,1-.49-1.4,1.81,1.81,0,0,1,.88-1.2c2.18-.81,4.51-.85,6.76-1.36A3.23,3.23,0,0,1,987.19,216.22Z" style="fill:#edd28e"/><path d="M977.19,218.21q0,.49,0,1l-5,0q0-.51,0-1C973.86,216.67,975.52,216.95,977.19,218.21Z" style="fill:#f1d89b"/><path d="M1025.19,224.2c-2.82.29-4.65-.53-3.86-3.81,1.23-5.09,2.56-10.15,3.85-15.22.78-2.48,2.43-3.51,5-3A94.16,94.16,0,0,0,1025.19,224.2Z" style="fill:#ebd083"/><path d="M1030.19,202.19c-2.11.25-3.5,1.71-5,3a12,12,0,0,0-6,3l-4,1-1-.89,2-1.11c1.89-1.23,4.48-1.05,6-3,.52-2.17,2.56-1.47,3.91-2.06l5-2.86q0,.45,0,.89Z" style="fill:#f1da9f"/><path d="M934.19,222.21l-2,15c-7.49,0-8.81-2-6-9.79a12.74,12.74,0,0,0,1-5.21h5A1.4,1.4,0,0,1,934.19,222.21Z" style="fill:#bf9a54"/><path d="M152.19,237.21h-5c.06-5.09-3.28-9.73-2-15h6c2.28,2.55,2.83,5.88,3.85,9C155.93,233.85,154.75,236,152.19,237.21Z" style="fill:#bf9a54"/><path d="M152.19,237.21c1.9-2.5,2.78-4.85.81-8-1.22-1.95-1.25-4.64-1.81-7,4.69-.6,7.44.45,7.26,6.21-.09,2.81.77,5.82.73,8.78Z" style="fill:#bb9652"/><path d="M136.16,221.16c3.38.77,6.75-1.79,10.13,0l-1.1,1.06h-6C137.81,222.91,136.47,223.54,136.16,221.16Z" style="fill:#bb9652"/><path d="M53.18,204.23q0,.49,0,1c1.21,5.09,2.34,10.2,3.65,15.27.64,2.47.19,3.86-2.65,3.72-3-6.7-2.36-14.24-5-21C50.91,202.06,51.93,203.58,53.18,204.23Z" style="fill:#ebd083"/><path d="M53.18,204.23l-4-1.05-1-2c2.17-.4,3.3,1.57,5,2.18Q53.18,203.79,53.18,204.23Z" style="fill:#f0daa2"/><path d="M926.28,221.16q-.09-.43-.19-.86l26.09-.11a17.81,17.81,0,0,1,9,.07q0,.47-.05.94l-7,0a88.94,88.94,0,0,1-13.78.72c-2.68-.81-5.54.39-8.19-.74Z" style="fill:#e1c486"/><path d="M932.18,221.23l8,0,.38.47-.36.47h-8Q932.19,221.71,932.18,221.23Z" style="fill:#bb9652"/><path d="M162.18,174.22c8,1.23,8,1.23,7.05,8.83a1.67,1.67,0,0,0,0,.49c1,5.64-1.1,9-7,9.56l-.51.51a5.82,5.82,0,0,1-2.86-.21c-.95-.39-2.18-1-1.65-2.07C159.92,185.92,159,179.47,162.18,174.22Z" style="fill:#f4e0a7"/><path d="M162.18,174.22c-.6,5.56-1.27,11.16-3.48,16.29-.68,1.58,0,1.82.5,2.61-2.92,1.26-6,.18-9,.75-2.62-1.92,0-2.26.93-3.1.41-.25.84-.48,1.26-.71,3.58-5.17,2.2-11.17,2.82-16.83Z" style="fill:#f0da9b"/><path d="M148.19,191.21c.32-4,1-8.09.86-12.11-.11-3.34,1.68-4.69,4.13-5.88q.5,0,1,0c1.63,6.25-.17,12.12-2,18h0A3.86,3.86,0,0,1,148.19,191.21Z" style="fill:#eed48f"/><path d="M152.19,191.21c-.58-6.13,1.63-12,2-18h1c2.77,5.57.12,11.09-.21,16.62C154.89,191.34,153.31,191.12,152.19,191.21Z" style="fill:#efd795"/><path d="M167.19,194l-4.91.1q-.53-.2-.41-.5c.09-.21.18-.32.29-.32l.05-.21C163.86,193.45,165.74,192.61,167.19,194Z" style="fill:#eed28f"/><path d="M915.19,193.2c-3.92-.67-5.58-3.09-5.52-7a11.12,11.12,0,0,0-.52-3.9c-2.14-5.86,1-7.7,6-8.11,2.44,3,2.21,6.75,3,10.2.51,2.17.18,4.45,1.69,6.5,1.2,1.62-.68,2.08-1.81,2.63C917.1,193.67,916.08,194,915.19,193.2Z" style="fill:#f3e0a6"/><path d="M918.18,193.1c-.47-3.21-.9-6.43-1.4-9.63s-1.05-6.17-1.58-9.26h3c1.92,3.28,1.1,7.07,1.67,10.57a13.06,13.06,0,0,0,4.31,8.33A6.89,6.89,0,0,1,918.18,193.1Z" style="fill:#f2dda0"/><path d="M918.18,193.1l6,0,7,.1a.89.89,0,0,1-.14,1.34,2.24,2.24,0,0,1-2.84-.35h-4l-7,0-6.08-.1c1.16-1.22,2.71-.7,4.09-.93Z" style="fill:#d3b06c"/><path d="M943.19,235.21c-5.14,1.87-5.88,1.45-5.43-3.49a24.74,24.74,0,0,1,2.42-9.52h0a5.83,5.83,0,0,1,5,0C943.06,226.32,943.18,230.77,943.19,235.21Z" style="fill:#cba55c"/><path d="M945.19,222.21h-5q0-.47,0-.94l14,0a2,2,0,0,1-2,1Z" style="fill:#c9a054"/><path d="M136.16,221.16c.72,1.2,1.91,1,3,1,.95,2.05.44,4.35,1.61,6.5,3.2,5.82,2.07,7.45-4.62,7.5-.06-3.75-1.35-7.36-1.07-11.19s-2.9-2.51-4.93-2.8c-1.68-.27-3.64.71-5-1.07Z" style="fill:#caa45b"/><path d="M961.23,220.26l-9-.07q0-.49,0-1c5,.53,10.09-1.14,15,.95Z" style="fill:#f1d99a"/><path d="M969.18,191.2c3.13,3.37.79,6.91,0,10.16-.68,2.66-.92,4.79,1,6.83l-.3.74a16.69,16.69,0,0,1-12,2.8,4.18,4.18,0,0,1-2.75-4.72,64.13,64.13,0,0,1,2.08-10.64c.75-2.71,3.31-2.93,5.32-3.89a14.4,14.4,0,0,1,4.64-1.94A2.29,2.29,0,0,1,969.18,191.2Z" style="fill:#e5c474"/><path d="M982.18,202.18a5.91,5.91,0,0,0,3-3h1l1,1c.21,2.4-2,2.74-3.28,3.92a48,48,0,0,1-5.26,3.13c-2.12.91-4,2.3-6.36,2.75a3.17,3.17,0,0,1-2.08-.5.83.83,0,0,1-.25-.84q.13-.41.26-.41l0-.06c3.35-1,6.7-2.07,9-5Z" style="fill:#f4dfa4"/><path d="M969.18,191.2l-2,0a1.36,1.36,0,0,1-.24-1.18,3,3,0,0,1,1.32-1.33c1-.59,2.07.2,3-.36l2-1.05,1.88-1.06,3-1.29C976.61,189.08,972,188.93,969.18,191.2Z" style="fill:#eed59a"/><path d="M959.19,191.2l1,0c-1,3.3-3.66,1.92-5.77,2.16a3.41,3.41,0,0,1-2.27-1.2c-1.12-7.49-.68-15.26-3.1-22.82l3.1-.18c2.77,6,1.49,12.53,2.8,18.75C955.59,190.85,956.77,191.42,959.19,191.2Z" style="fill:#dcbb6d"/><path d="M952.19,192.21l2,0c.6.71,1.82.22,2.27,1.2a1.45,1.45,0,0,1-.51,1.19,3.7,3.7,0,0,1-2.66.31,9.64,9.64,0,0,0-5.25-.14,6.66,6.66,0,0,1-1.41,0c-2.1-.54-4.43.06-6.39-1.23a.93.93,0,0,1-.09-1.32v0h12Z" style="fill:#e8cc85"/><path d="M968.35,189.3l-1.15,1a2.13,2.13,0,0,1-2.93,0,95.27,95.27,0,0,0-2.16-18.48c-.45-2,0-2.82,2.08-2.57l1,1C968.21,176.24,967.89,182.83,968.35,189.3Z" style="fill:#cca960"/><path d="M964.27,190.26h2.93q0,.46,0,.92c-.85,1.64-3.14.42-4,2-2.33.49-4.65,1.46-7,0a2.06,2.06,0,0,1-2-1c2-.36,4.24.73,6-1C961.61,191.09,963.17,191.61,964.27,190.26Z" style="fill:#eacf8f"/><path d="M968.35,189.3c-3.15-1.26-.88-4-1.39-5.93-1.1-4.25-1.24-8.76-1.77-13.16,2.5-.23,2.62,1.31,3.12,3.32,1.23,4.89,0,10.29,3,14.78C970.54,189.29,969.42,189.24,968.35,189.3Z" style="fill:#c7a55e"/><path d="M96.47,182.1l1.78,1.3c1.17,1.14,1.62,3.25,3.91,2.87l3.06,1.87c.17,1.18,1.18,1.93,1.58,3,1,4.15.86,8.49,2.22,12.6a4,4,0,0,1-1.27,4.49c-3.65,1.22-6.36-1.38-9.47-2.36-.86-.67-1.56-1.41-1.1-2.63,1.4-2.81,1-5.6.37-8.58C96.67,190.56,94.86,186.45,96.47,182.1Z" style="fill:#e9ca78"/><path d="M97.2,203.24l1,2c2.75,1.37,5.75,2.22,8.26,4.08-1.06,2.88-.56,6-1.27,8.91a29.91,29.91,0,0,1-11-2v0c.13-4.41-2-9.17,2-13Z" style="fill:#e9cb79"/><path d="M96.18,203.22c-2.16,4.1.36,8.91-2,13-3.67-2.09-5-9-3-15l3.07,1.09Z" style="fill:#e6c676"/><path d="M109.1,189.27a2.32,2.32,0,0,0,2.09-1.06,5,5,0,0,1-.73-5.09,25.85,25.85,0,0,0,1.32-8.69c-.1-3.11,1.28-4.88,4.41-5.22,2.82-.28,2.06,1,1.68,2.93-1.26,6.29-2.77,12.64-.68,19.07-2,1.79-4.05.68-6.11.23C110.07,191,109,190.68,109.1,189.27Z" style="fill:#ccaa60"/><path d="M127.18,169.21c.92.24,2.18-.95,1.46,1.84-1.78,6.92-3.36,14.21.54,21.14-1.66,1.72-3.81,1.26-5.85,1.31a4,4,0,0,1-3.16-1.36,7.15,7.15,0,0,0,3-6.43c-.3-4.06,2.23-7.81,1.16-12.07C123.91,171.82,125.94,170.53,127.18,169.21Z" style="fill:#dcbb6d"/><path d="M116.18,169.21c-2.21,1.15-3.63,2.73-3,5.44,1.12,4.78-2.59,8.85-2,13.56-1.34,0-3.28-.1-2.83-1.84,1.46-5.68-.25-12.07,3.82-17.14Z" style="fill:#c6a45c"/><path d="M120.17,192.14l3,.1c.18,1.58-1.06,1.74-2.1,2.1-3.63.19-7.35.76-10.17-2.44a1.65,1.65,0,0,1,.27-1.58l6,.89C117.92,192.35,119.07,192.16,120.17,192.14Z" style="fill:#e9ce8d"/><path d="M121.18,193.21a2.06,2.06,0,0,0,2-1l6,0h7l1,0c-1.38,3.82-4.7,1.72-7.12,2.34a19,19,0,0,0-5.29.32,6.66,6.66,0,0,1-2.22.19,3.52,3.52,0,0,1-1.36-.55A1,1,0,0,1,121.18,193.21Z" style="fill:#e8cb83"/><path d="M129.18,193.22c2.65-.45,5.54,1,8-1l4,0h1l1,0c.77,1.11,2.76-.29,3.19,1.54-1.41,2.31-3.75,1.56-5.8,1.79-1.06,0-2.13,0-3.19,0-.54,0-1.07,0-1.61,0-2.14-.14-4.37.29-6.37-.91A1,1,0,0,1,129.18,193.22Z" style="fill:#eed28f"/><path d="M111.16,190.32q0,.44,0,.89c-2.38,1.82-4.13.08-6-1-.11-.68-1.17-1.37,0-2a6.32,6.32,0,0,0,1,.07c.72,1.06,1.84,1,2.92,1.06Z" style="fill:#eed598"/><path d="M102.17,186.27c-2.84,1.12-3.47-.74-3.91-2.87l2.92,1.82Z" style="fill:#f0d99f"/><path d="M146.24,193.23c-1.1-.07-2.31.16-3-1h2c1.1,0,2.28.18,3-1h4l-3,2A2,2,0,0,1,146.24,193.23Z" style="fill:#efd795"/><path d="M940.18,192.22q0,.5,0,1a1.18,1.18,0,0,1-.24,1.29,3.62,3.62,0,0,1-3.47.34,2.23,2.23,0,0,1-1.29-1.65q0-.49,0-1Z" style="fill:#eed58f"/><path d="M935.18,193.2l1,.95a3.3,3.3,0,0,1-5,0q0-.47-.08-.95Z" style="fill:#e8cc85"/><path d="M1026.18,202.2l-3.91,2.06c1.77-11.31.58-22.7.92-34.05,2.9-.35,4.13.72,4.06,3.84-.18,7.57-.23,15.15.06,22.72C1027.38,198.82,1025.6,200.22,1026.18,202.2Z" style="fill:#d0ae63"/><path d="M83.16,214.23c-1.38-.14-2.93.38-4-1a10.27,10.27,0,0,1-1.76-5.06c-.35-5.44.09-10.87-.26-16.29a5.47,5.47,0,0,1,2.07-4.71l6.92,9.12c-1.81,1.32-2,3.18-2,5.26C84.05,205.79,84.91,210.12,83.16,214.23Z" style="fill:#dfbf70"/><path d="M1044,187.1c-1.25-2.66-1.46-5.3.18-7.9A7.67,7.67,0,0,1,1044,187.1Z" style="fill:#bd9a50"/><path d="M33.39,179.32a6.69,6.69,0,0,1-.06,6.87C32.81,183.9,32.06,181.6,33.39,179.32Z" style="fill:#bd9a52"/><path d="M1005.23,211.25a10.16,10.16,0,0,1-6,2c-2.58-1.48,0-3.26-.18-4.91-.58-6.7.14-13.48-.89-20.18l2.95-6.93,1.11-2c3.71,4.71,1.64,10.5,2.83,15.72a21.64,21.64,0,0,1-.63,10.77C1003.88,207.4,1003.48,209.63,1005.23,211.25Z" style="fill:#ddbc6d"/><path d="M983.24,203.29l3.93-3.09,5-4.06c1.26-.25,2.5-2.08,3.77.11,1.56,2.7.45,15.31-1.68,18a16.59,16.59,0,0,1-7,2l-3,0c-.35-2.27,1.71-3.84,1.69-6.08C985.85,207.46,986.6,204.62,983.24,203.29Z" style="fill:#e3c373"/><path d="M994.23,214.25c1.81-5.55.64-11.27.94-16.9.17-3.23-2.55.54-3-1.2l6-8a6.19,6.19,0,0,1,2.12,5.18c.06,5.57-.93,11.26.55,16.67.62,2.26-2.29,1.64-1.6,3.24C997.8,214.81,995.91,214,994.23,214.25Z" style="fill:#e0bf70"/><path d="M146.24,193.23l3,0,10-.07,3,.2q0,.41.12.82l-2.07.1-5,0c-2-.05-4.27-.35-2.89,2.93,1.64,3.9,1.76,8,2,12.18-1.24.93-2.45,1.92-4.16,1.73-1.82-3.32-1.11-7.13-2-10.67-.67-2.75-1.77-4.07-4.56-3.9-1.4-.35-3.31.08-3.4-2.24C142.22,193.87,144.46,194.94,146.24,193.23Z" style="fill:#d2ac60"/><path d="M136.17,194.25l1,0c5,1.76,5,6.36,6,10.4.43,1.71-.47,3.65.92,5.18a5.08,5.08,0,0,1,2.1,1.44c-1.1,1.34-2.68.77-4.06,1-1.85,1.61-3.94,1.38-6.07.8-.3-.14-.81-.41-.76-.56a20.06,20.06,0,0,0-1.14-16.08C133.35,194.71,135.47,195,136.17,194.25Z" style="fill:#dfbb6d"/><path d="M144.18,219.2h-13a3.45,3.45,0,0,1-1.67-4.48,2.66,2.66,0,0,1,1-1.1,7.83,7.83,0,0,1,4.28-.48c.46,0,.92.06,1.38.07,1.79,0,3.59,0,5.38,0h.67C147.73,213.58,144,217,144.18,219.2Z" style="fill:#f0d997"/><path d="M136.19,214.21h-1a5.43,5.43,0,0,0-5,0h0c-2.93,1.79-5.7,2.2-8-1a36,36,0,0,1-10-2c-2.62,1.2-4.55.28-6-2a20.32,20.32,0,0,1-8-4c3.34,0,6,2.16,9,3,4.39-1.54,8,2.18,12.19,1.83a32.44,32.44,0,0,0,6.47.81c3.12.4,6.5-.92,9.31,1.43l7,0q0,.47,0,.95h0C140.34,214.45,138,212.91,136.19,214.21Z" style="fill:#f2db9c"/><path d="M146.25,211.25l-3.05-.05c3.72-3.18,2.49-6.75.92-10.42-.78-1.81-1.58-3.73.07-5.57,3.49-.39,4.93.95,5.15,4.68s1.68,7.35.82,11.17l-2,.23Z" style="fill:#d6b164"/><path d="M122.18,213.22c2.52,1.52,5.32.84,8,1a8.29,8.29,0,0,0,1,5h-9C118.26,217.21,118.23,215.22,122.18,213.22Z" style="fill:#eed48e"/><path d="M953.18,214.2h-5c-4.06,2.45-8.3,1.3-12.83.84-.4,1.17.19,3-1.16,4.16-3.75.62-7.31-1-11-1,.64-2.62-1.37-5.57,1-8a3.52,3.52,0,0,1,2.83-.79c1.47.32,3,.62,4.43,1,1.74.6,3.61.51,5.37,1,5,1.15,10.07-.24,15,.88C952.65,212.66,953.4,213.1,953.18,214.2Z" style="fill:#f2dda0"/><path d="M927.13,210.24h-2.94l-1.17-.94c2.43-2.19,2-5.35,2.47-8.09.46-2.59.56-5.12,2.7-7l3.06,0,5,0h4l.13.73a3,3,0,0,1-2.45,1.44c-1.19.16-2.39.13-3.58.21-3.49,0-3.64,2.74-4.24,5.14-.53,2.13-.25,4.29-.38,6.44C929.6,209.64,929.47,211.32,927.13,210.24Z" style="fill:#d2ac60"/><path d="M934.19,219.2v-5.51c4.55.94,9.28.37,14,.52a8.27,8.27,0,0,1-1,5Z" style="fill:#f0d997"/><path d="M106.15,209.25l6,2c-.09,3.45,1.37,8-5,7l-2,0C103.87,215,103.1,211.93,106.15,209.25Z" style="fill:#eacf81"/><path d="M970.19,209.23h2c2.95.58,3.22,2.73,3.23,5.21,0,3-2.28,3.12-4.23,3.77h-5c-1.61-1.95-1.5-4.12-.82-6.36C966.37,209.86,968.54,210,970.19,209.23Z" style="fill:#eacf81"/><path d="M971.2,218.2c3.83-2.66,4.1-5.08,1-9l6-3c3.34,2.07,2.38,5.49,2.57,8.49.17,2.57-2.52,1.43-3.58,2.46q0,.5,0,1h-5Z" style="fill:#eacc7c"/><path d="M966.19,211.22q0,3.49,0,7c-4.87.88-6.9-1.08-6-6A10.79,10.79,0,0,1,966.19,211.22Z" style="fill:#edd188"/><path d="M966.19,211.22c-1.86,1.15-3.94,1-6,1l-7,2-1-1a1,1,0,0,1,0-1.28,4.33,4.33,0,0,1,1.25-.7c1.6-.34,3.2-1,4.8,0,4.25,0,8-1.93,12-3q0,.49,0,1A5.66,5.66,0,0,1,966.19,211.22Z" style="fill:#f1d99a"/><path d="M977.19,217.22c4.8-3.24,1.62-7.21,1-10.95l5-3c1,2.27,3.46-1.91,3.78.57.4,3,.81,6.3-.43,9.29a14.15,14.15,0,0,1-2.4,3.06C982,217.6,979.56,217.12,977.19,217.22Z" style="fill:#e7c977"/><path d="M958.19,211.21l-5,1c-2.71-.7-5.68,1.08-8.25-.9-1-4.91.32-9.53,1.81-14.11.72-2.21,2.42-3,4.67-2.88,1.6.1,3.23,1.06,4.81-.08q0-.49,0-1l7,0c-1.09,2.06-5.26.28-5,4.18C958.46,202,953.79,206.59,958.19,211.21Z" style="fill:#e4c070"/><path d="M956.19,194.19a4.09,4.09,0,0,1-.73.65c-2.19,1.17-5.43-1-6.9,1.48-1.64,2.83-2.15,6.2-2.4,9.54a49.72,49.72,0,0,1-1,5.34c-6.4,2.24-8.13,1-6.82-5.23.74-3.53,0-7.7,3.66-10.2-.49-.53-1.46-.88-.68-1.88,2-.14,3.91-.55,5.8.28h1.08a6,6,0,0,1,4.94,0Z" style="fill:#e1bc6d"/><path d="M947.15,194.17l-6,.07a.63.63,0,0,1-1.06,0l.07-.1q0-.47,0-.93C942.5,193.58,945,192.3,947.15,194.17Z" style="fill:#eed393"/><path d="M953.17,194.19l-4.94,0A3.36,3.36,0,0,1,953.17,194.19Z" style="fill:#eed393"/><path d="M119.19,211.2c-4.3.21-7.93-2.24-12-3,.31-.92,1.13-2,.85-2.73-2-4.92-1.29-10.3-2.87-15.27l6,1c3,2.46,6.54,1.94,10,2q0,.49,0,1a23.18,23.18,0,0,0,.72,10.73C122.64,207.63,122.65,210.22,119.19,211.2Z" style="fill:#e6c574"/><path d="M119.19,211.2c2.36-1.83,1.89-4,1.4-6.62-.62-3.39-3.73-7.21.6-10.38l1,0c.14.09.27.23.42.26,2.76.48,6.49-1.76,8.12,1.56,2,4.07,4,8.38,3.29,13.26-.27,1.88-1.26,2.39-3,2.44-1.94.05-4-.57-5.81.47C123.08,212.52,121.19,211.57,119.19,211.2Z" style="fill:#e4c070"/><path d="M125.19,212.2a2.54,2.54,0,0,1,2.68-1c5.56,1.08,5.11-2.57,4.78-6-.3-3.12-2.79-5.52-2.84-8.82,0-1.37-1.82-1-2.93-1.16-1.59-.17-3.38.55-4.68-1l2,0a6.22,6.22,0,0,1,5,0l7,.1c-.14.78-1.66.84-.73,2.32,2,3.22,2.36,6.87,2.45,10.7.06,2.56-.74,3.89-2.72,5Z" style="fill:#e1bc6c"/><path d="M129.18,194.15l-5,0c1.4-1.65,3.3-.74,5-1Q129.19,193.68,129.18,194.15Z" style="fill:#efd393"/><path d="M144.19,195.21c-.55,3,1.2,5.5,2.23,8.06,1.59,3.93,1.62,6.81-3.22,7.93-2.47-.27-1-2-1-3-.17-5.2-.94-10.16-5-14l3,0C141.28,195.67,142.82,195.06,144.19,195.21Z" style="fill:#d9b466"/><path d="M136.19,214.21c1.75-1.81,4-.67,6-1C140.44,215,138.19,213.88,136.19,214.21Z" style="fill:#f4dfa5"/><path d="M130.19,214.2a3.37,3.37,0,0,1,5,0Z" style="fill:#f4dfa5"/><path d="M940.14,194.25h1.06c.6,1.24,2.12.6,3.32,1.74-2.21.1-3.41.93-3.51,3.08a46.62,46.62,0,0,1-.92,5.79c-1.11,6.35-1.11,6.35,5.1,6.35,2.64.45,5.51-1,8,1l-1,.09a60.24,60.24,0,0,1-16,0c-1.67-.34-3.59.52-5-1,.46-1.66,3.06.15,3.21-2,.77-4.81,1.17-9.71,3.81-14A2,2,0,0,0,940.14,194.25Z" style="fill:#deb969"/><path d="M935.19,210.21c-.86,2.23-2.76.33-4,1-1.4-.1-2.94.34-4-1,2.91-1,1.22-3.26,1.17-4.89-.16-6.53,1.25-9.13,5.89-10.14a35.53,35.53,0,0,1-.4,10.19C933.42,207.36,933.47,209,935.19,210.21Z" style="fill:#d6b164"/><path d="M936.19,212.25h16q0,.47,0,.94C946.86,212.69,941.42,214.28,936.19,212.25Z" style="fill:#eed48e"/><path d="M935.19,210.21c-2.76.17-4.3-.87-2.89-3.69,1.8-3.62-.63-7.87,1.89-11.31h4C938.29,200.43,935.51,205.07,935.19,210.21Z" style="fill:#d9b466"/></g></g></svg>